<?xml version="1.0" encoding="utf-8"?>
<svg width="16px" height="14.5px" xmlns="http://www.w3.org/2000/svg">
  <path fill="#585858" d="M 12.862 12.365 L 10.289 12.365 L 10.289 9.84 L 12.862 9.84 L 12.862 12.365 Z M 9.003 6.052 L 6.432 6.052 L 6.432 8.577 L 9.003 8.577 L 9.003 6.052 Z M 12.862 6.052 L 10.289 6.052 L 10.289 8.577 L 12.862 8.577 L 12.862 6.052 Z M 5.145 9.84 L 2.573 9.84 L 2.573 12.365 L 5.145 12.365 L 5.145 9.84 Z M 15.435 1 L 15.435 14.891 L 0 14.891 L 0 1 L 15.435 1 Z M 14.148 4.788 L 1.286 4.788 L 1.286 13.629 L 14.148 13.629 L 14.148 4.788 Z M 9.003 9.84 L 6.432 9.84 L 6.432 12.365 L 9.003 12.365 L 9.003 9.84 Z M 5.145 6.052 L 2.573 6.052 L 2.573 8.577 L 5.145 8.577 L 5.145 6.052 Z" style=""/>
</svg>