<svg xmlns="http://www.w3.org/2000/svg" width="64" height="64" fill-rule="evenodd" clip-rule="evenodd" image-rendering="optimizeQuality" shape-rendering="geometricPrecision" text-rendering="geometricPrecision" viewBox="0 0 363.64 363.64"><path fill="#fa6831" d="M105.92 237.47L105.92 117.42 149.58 117.42 89.51 37.38 29.45 117.5 73.19 117.5 73.19 248.32 29.45 248.32 89.51 328.44 149.66 248.32 105.92 248.32z"></path><path fill="#313131" d="M335 19.23l-109.12 0 0 327.27 109.12 0 0 -327.27zm-81.85 300.01l0 -27.26 27.26 0 0 -13.63 -27.26 0 0 -27.26 40.89 0 0 -13.63 -40.89 0 0 -27.26 27.26 0 0 -13.63 -27.26 0 0 -27.26 27.26 0 0 -13.63 -27.26 0 0 -27.26 40.89 0 0 -13.63 -40.89 0 0 -27.26 27.26 0 0 -13.63 -27.26 0 0 -27.26 54.52 0 0 272.75 -54.52 0 0 -0.16z"></path></svg>