<svg xmlns="http://www.w3.org/2000/svg" fill-rule="evenodd" clip-rule="evenodd" image-rendering="optimizeQuality" shape-rendering="geometricPrecision" text-rendering="geometricPrecision" viewBox="-65.88 -65.88 24 24">
  <path fill="var(--icon-secondary)" d="M-56.0824205-58.0828715c.005667.683818.085005 1.091842-.313574 1.456419s-.8056585.249348-1.477198.185122l-.534587 1.1456785c.4864175.4807505.833049.7112085.808492 1.252407-.024557.538365-.3863005.738599-.9152205 1.173069l.43447 1.191959c.678151-.005667 1.091842-.085005 1.456419.313574s.249348.802825.185122 1.477198l1.1456785.534587c.4807505-.4864175.714042-.833049 1.2495735-.808492.5411985.024557.744266.389134 1.1796805.9152205l1.1891255-.4316365c-.005667-.683818-.085005-1.091842.313574-1.456419s.802825-.249348 1.477198-.185122l.534587-1.1456785c-.4769725-.468472-.833049-.708375-.808492-1.252407.024557-.538365.3919675-.7414325.9152205-1.173069l-.43447-1.191959c-.6809845.005667-1.091842.085005-1.456419-.309796-.364577-.398579-.249348-.802825-.185122-1.477198l-1.1456785-.534587c-.4807505.4864175-.7112085.833049-1.252407.808492-.538365-.024557-.7414325-.389134-1.173069-.9152205l-1.1891255.43447-.0028335-.0066115zm-.139786-3.277415c.7414325-.234236 1.531979-.35891 2.349916-.35891 4.32581 0 7.837461 3.511651 7.837461 7.837461s-3.511651 7.837461-7.837461 7.837461-7.837461-3.511651-7.837461-7.837461c0-1.6632645.523253-3.2009105 1.407305-4.469374l1.726546 1.3345785v-5.1560255l-4.7121105 1.516867 1.741658 1.346857c-1.088064 1.5348125-1.7331575 3.4049225-1.7331575 5.4299305 0 5.189083 4.2134145 9.403442 9.403442 9.403442 5.189083 0 9.393997-4.2134145 9.393997-9.403442 0-5.189083-4.204914-9.403442-9.393997-9.403442-.8113255 0-1.5990385.103895-2.349916.2975175v1.6292625l.0028335-.0066115zm2.344249 5.313757c1.1947925 0 2.164794.9700015 2.164794 2.164794s-.9700015 2.164794-2.164794 2.164794-2.164794-.9700015-2.164794-2.164794.9700015-2.164794 2.164794-2.164794z"/>
  <path fill="#fa6831" d="m-63.8802125-45.45774 18.427195-18.427195 1.5744815 1.5744815-18.427195 18.427195z"/>
</svg>