<svg xmlns="http://www.w3.org/2000/svg" width="64" height="64" fill-rule="evenodd" clip-rule="evenodd" image-rendering="optimizeQuality" shape-rendering="geometricPrecision" text-rendering="geometricPrecision" viewBox="0 0 363.64 363.64"><path fill="#fa6831" d="M0 89.38L363.64 89.38 363.64 60.28 0 60.28z"></path><path fill="#313131" fill-rule="nonzero" d="M115.15 243.55c1.57,4.56 -0.9,9.54 -5.46,11.11 -4.56,1.57 -9.54,-0.9 -11.11,-5.46l-44.14 -129.06c-1.57,-4.56 0.9,-9.54 5.46,-11.11 4.56,-1.57 9.54,0.9 11.11,5.46l44.15 129.06zm-17.99 54.77l169.31 0 0 -29.1 -169.31 0 0 29.1zm167.89 -49.18c-1.57,4.56 -6.51,7.03 -11.11,5.46 -4.56,-1.57 -7.03,-6.51 -5.46,-11.11l44.15 -129.06c1.57,-4.56 6.5,-7.03 11.11,-5.46 4.56,1.57 7.03,6.51 5.46,11.11l-44.14 129.06zm-35.69 -133.09c0.66,-4.79 5.12,-8.12 9.92,-7.45 4.79,0.66 8.12,5.13 7.45,9.92l-18.8 129.06c-0.66,4.79 -5.13,8.12 -9.92,7.45 -4.79,-0.66 -8.12,-5.12 -7.45,-9.92l18.8 -129.06zm-38.78 130.29c0,4.84 -3.94,8.78 -8.78,8.78 -4.84,0 -8.78,-3.94 -8.78,-8.78l0 -129.06c0,-4.84 3.94,-8.78 8.78,-8.78 4.84,0 8.78,3.94 8.78,8.78l0 129.06zm-37.5 -1.23c0.66,4.79 -2.66,9.21 -7.45,9.92 -4.79,0.66 -9.21,-2.66 -9.92,-7.45l-18.8 -129.06c-0.66,-4.79 2.66,-9.21 7.45,-9.92 4.79,-0.66 9.21,2.66 9.92,7.45l18.8 129.06z"></path></svg>