<?xml version="1.0" encoding="UTF-8" standalone="no"?>
<!DOCTYPE svg PUBLIC "-//W3C//DTD SVG 1.1//EN" "http://www.w3.org/Graphics/SVG/1.1/DTD/svg11.dtd">
<svg width="100%" height="100%" viewBox="0 0 314 314" version="1.1" xmlns="http://www.w3.org/2000/svg" xmlns:xlink="http://www.w3.org/1999/xlink" xml:space="preserve" xmlns:serif="http://www.serif.com/" style="fill-rule:evenodd;clip-rule:evenodd;stroke-linejoin:round;stroke-miterlimit:2;">
    <g transform="matrix(1,0,0,1,-99.09,-99.09)">
        <path d="M361.7,382.91L287.13,308.35L308.35,287.13L382.91,361.7L382.91,331.13L412.91,331.13L412.91,412.91L331.13,412.91L331.13,382.91L361.7,382.91ZM180.87,382.91L150.3,382.91L224.87,308.35L203.65,287.13L129.09,361.7L129.09,331.13L99.09,331.13L99.09,412.91L180.87,412.91L180.87,382.91ZM129.09,150.3L203.65,224.87L224.87,203.65L150.3,129.09L180.87,129.09L180.87,99.09L99.09,99.09L99.09,180.87L129.09,180.87L129.09,150.3ZM308.35,224.87L382.91,150.3L382.91,180.87L412.91,180.87L412.91,99.09L331.13,99.09L331.13,129.09L361.7,129.09L287.13,203.65L308.35,224.87Z" style="fill-rule:nonzero;"/>
    </g>
</svg>
