<svg xmlns="http://www.w3.org/2000/svg" viewBox="0 0 24 24">
  <path fill="#585858" d="M11.99564 14.10968c-2.54826 0-6.413121-.447579-8.45064-1.901394v3.16899c2.037519 1.466883 5.915448 1.901394 8.45064 1.901394s6.412032-.4356 8.45064-1.901394v-3.16899c-2.051676 1.466883-5.928516 1.901394-8.45064 1.901394zm0-12.10968C7.471934 2 3.545 3.255617 3.545 4.808531s3.938913 2.808531 8.45064 2.808531 8.45064-1.255617 8.45064-2.808531S16.5041 2 11.99564 2z"/>
  <path fill="#585858" d="M20.45717 16.98464v2.075634c0 1.628055-3.938913 2.9403-8.45064 2.9403s-8.45064-1.31769-8.45064-2.9403V16.98464c2.050587 1.466883 5.927427 1.901394 8.45064 1.901394 2.54826 0 6.413121-.442134 8.45064-1.901394z"/>
  <path fill="#fa6831" d="M11.99564 9.311546c-2.54826 0-6.413121-.451935-8.45064-1.90575v3.16899c2.037519 1.465794 5.915448 1.901394 8.45064 1.901394s6.412032-.4356 8.45064-1.901394v-3.16899c-2.051676 1.47015-5.928516 1.90575-8.45064 1.90575z"/>
</svg>