<?xml version="1.0" encoding="UTF-8"?>
<!DOCTYPE svg PUBLIC "-//W3C//DTD SVG 1.1//EN" "http://www.w3.org/Graphics/SVG/1.1/DTD/svg11.dtd">
<!-- Creator: CorelDRAW 2017 -->
<svg xmlns="http://www.w3.org/2000/svg" xml:space="preserve" width="10.0183mm" height="8.3503mm" version="1.1" style="shape-rendering:geometricPrecision; text-rendering:geometricPrecision; image-rendering:optimizeQuality; fill-rule:evenodd; clip-rule:evenodd"
viewBox="0 0 733.25 611.17"
 xmlns:xlink="http://www.w3.org/1999/xlink">
 <defs>
  <style type="text/css">
   <![CDATA[
    .fil0 {fill:#585858}
   ]]>
  </style>
 </defs>
 <g id="Layer_x0020_1">
  <metadata id="CorelCorpID_0Corel-Layer"/>
  <path class="fil0" d="M336.09 91.66c-49.78,0 -70.43,-32.31 -122.2,-91.66l-213.89 0 0 611.17 239.29 0 -0.04 -8.94c0,-18.32 1.43,-28.91 23.12,-33.91 24.96,-5.77 48.2,-10.8 36.95,-32.09 -34.28,-64.72 -9.11,-99.32 27.11,-99.32 24.5,0 43.53,15.82 43.51,45.04 0,24.57 -11.12,42.12 -17.51,56.64l-20.3 0.01c3.29,-14.53 28.39,-49.59 14.84,-72.35 -7.98,-13.42 -32.99,-13.44 -40.94,-0.23 -7.36,12.22 -3.51,35.09 10.34,61.21 7.51,14.19 5.42,25.17 2.34,31.91 -5.89,12.9 -18.91,19.11 -33.64,23.39 -29.18,8.54 -26.5,0.82 -26.5,28.64l96.88 0 -0.04 -12.04c0,-24.38 1.94,-38.44 30.76,-45.1 32.57,-7.53 64.76,-14.25 49.29,-42.78 -45.82,-84.53 -13.09,-132.44 36.11,-132.44 48.26,0 81.86,46.15 36.16,132.44 -15.01,28.35 15.96,35.09 49.29,42.78 28.85,6.66 30.77,20.76 30.77,45.18l-0.04 11.96 116.21 0 0.04 -8.97c0,-18.3 -1.43,-28.9 -23.1,-33.89 -24.96,-5.77 -48.2,-10.83 -36.95,-32.09 34.28,-64.72 9.11,-99.32 -27.11,-99.32 -24.5,0 -43.53,15.82 -43.53,45.03 0,24.58 11.12,42.12 17.51,56.64l20.29 -0.01c-3.29,-14.52 -28.39,-49.62 -14.84,-72.35 7.98,-13.4 33,-13.42 40.94,-0.23 7.36,12.22 3.51,35.09 -10.34,61.21 -7.52,14.19 -5.42,25.19 -2.34,31.91 5.91,12.9 18.92,19.11 33.64,23.39 29.18,8.54 26.5,0.81 26.5,28.66l19.31 0.01 29.28 0 0 -519.51 -397.17 0zm38.66 519.51l193.69 0c0,-30.03 1.16,-34.35 -17.04,-38.57 -27.85,-6.43 -54.16,-12.49 -63.77,-33.49 -3.48,-7.67 -5.83,-20.3 3,-36.93 19.77,-37.36 24.73,-69.39 13.59,-87.88 -13.01,-21.59 -52.42,-21.69 -65.55,0.33 -11.15,18.74 -6.12,50.6 13.8,87.38 9,16.58 6.74,29.24 3.26,36.95 -9.49,21.09 -35.56,27.11 -63.17,33.46 -19.02,4.4 -17.81,8.42 -17.81,38.75z"/>
 </g>
</svg>
