<svg xmlns="http://www.w3.org/2000/svg" width="23" height="23.001" viewBox="0 0 23 23.001">
  <g id="Layer_x0020_1" transform="translate(0.01)">
    <path id="Path_76" data-name="Path 76" d="M6.207.276A.938.938,0,1,1,7.533,1.6L1.869,7.266V8.407L10,.274A.936.936,0,0,1,10.666,0h3.8A.938.938,0,0,1,15.1,1.623L1.869,14.857V16L17.593.274A.936.936,0,0,1,18.256,0h3.8a.938.938,0,0,1,.642,1.623L3.2,21.121H4.338l17.05-17.05a.938.938,0,0,1,1.6.664v3.8a.934.934,0,0,1-.3.685L10.786,21.122h1.141l9.459-9.459a.938.938,0,0,1,1.6.664v3.8a.934.934,0,0,1-.3.685l-5.918,5.918A.938.938,0,0,1,15.448,21.4l5.664-5.664V14.593L13,22.7a.934.934,0,0,1-.685.3h-3.8a.939.939,0,0,1-.664-1.6L21.112,8.143V7L5.41,22.7a.934.934,0,0,1-.685.3H.928a.939.939,0,0,1-.664-1.6l19.52-19.52H18.643L1.614,18.908a.938.938,0,0,1-1.623-.642v-3.8a.937.937,0,0,1,.276-.664L12.2,1.879H11.054L1.616,11.318a.938.938,0,0,1-1.623-.642v-3.8a.937.937,0,0,1,.276-.664L6.208.277Z" transform="translate(0 0)" fill="#fa6831"/>
  </g>
</svg>
