<svg xmlns="http://www.w3.org/2000/svg" width="46.982" height="57.195" viewBox="0 0 46.982 57.195">
  <g id="Group_120" data-name="Group 120" transform="translate(0 0)">
    <path id="Path_182" data-name="Path 182" d="M38.811,42.13c0-.789.664-1.238,1.372-1.947.585-.585,1.06-1.373,1.947-1.373a2.269,2.269,0,0,1,1.788,2.043c0,.472-1.917,2.307-2.346,2.633-1.466,1.115-2.761-.771-2.761-1.357ZM40.854,36.9a2.021,2.021,0,0,1-2.043-1.788c0-.7,2.489-3.192,3.192-3.192a2.2,2.2,0,0,1,1.915,2.043c0,.573-2.444,2.936-3.064,2.936ZM38.811,28.47c0-1.051.622-1.325,1.372-2.075.918-.918,1-1.372,2.2-1.372.25,0,1.532.785,1.532,1.787,0,.659-.615,1.062-.989,1.436-.436.435-.779.782-1.207,1.218a1.4,1.4,0,0,1-1.715.369c-.387-.17-1.2-.951-1.2-1.364Zm-2.043-.255c0,2.169,1.68,2.952,2.043,3.447-.566.845-2.043,1.506-2.043,3.447,0,2.237,1.619,2.868,2.043,3.447-.36.537-.883.867-1.3,1.382-1.669,2.065-.1,5.01,1.3,5.384,0,2.45-1.017,3.7-3.447,3.7H17.746c-2.284,0-3.447-1.163-3.447-3.447V5.489c0-4.1,3.922-3.5,5.643-3.447a14.539,14.539,0,0,0,1.022,2.17c.243.485.79,1.915,1.4,1.915h8.682c.746,0,2.377-3.875,2.426-4.085,3.321-.019,5.337.261,5.337,3.447V24.512c0,.648-2.043,1.436-2.043,3.7ZM40.854,22.6c0-1.3-.078-2.832-.01-4.095A3.084,3.084,0,0,1,42.9,16.469c1.109,0,2.043.459,2.043,1.532,0,.855-1.051,1.625-1.883,2.458a23.083,23.083,0,0,1-2.2,2.138ZM22.367,2.042h8.682c-.182.78-.712,1.263-.894,2.043H23.261a3.737,3.737,0,0,0-.425-.979l-.468-1.064ZM12.256,9.575a5.409,5.409,0,0,0-2.3-.383A2.676,2.676,0,0,0,7.4,11.745c0,2.223.766,4.288.766,6.511,0,3.678.35,6.049-.84,9.118-2.363,6.1-.576,13.26-1.419,18.5C5.016,51.441,0,53.917,0,54.9c0,1.042.235,1.277,1.277,1.277.368,0,2.27-2.078,2.649-2.458C7.383,50.259,8.171,47.4,8.171,42.641c0-4.555-.374-10.34,1.038-14.281a11.17,11.17,0,0,0,1-4.1c0-6.393.237-5.828-.651-11.744-.341-2.268,1.7-1.04,2.694-.513V40.6c0,3.886-1.078,8.906,3.935,10.364,1.254.365,11.983.1,14.322.1l-.548.346c-2.251,1.143-4.772,1.153-7.537,2.677-2.606,1.435-2.543,3.106-.724,3.106.31,0,1.053-.936,2.259-1.444,2.9-1.221,5.636-.9,9.2-3.82a6.624,6.624,0,0,1,1.082-.833c1.126-.315,1.868.245,3.328-.374a5.228,5.228,0,0,0,3.28-4.891c1.641-.037,2.36-1.019,3.224-1.883.834-.834,1.883-1.647,1.883-3.224a4.1,4.1,0,0,0-2.043-3.447c.379-.566.927-.879,1.356-1.452,1.347-1.8.666-4.088-1.356-5.442.4-.6,2.043-1.719,2.043-3.447a3.89,3.89,0,0,0-.742-2.322,4.037,4.037,0,0,0-1.811-1.381c1.33-1.986,3.575-2.333,3.575-5.49,0-1.63-2.1-4.814-6.128-2.681,0-3.276-.021-6.558,0-9.832C40.877,2.15,38.144,0,36.258,0H16.853c-1.514,0-3.339,1.466-4.09,2.932-.8,1.57-.507,4.7-.507,6.643Z" transform="translate(0 0)" fill="var(--icon-secondary)" fill-rule="evenodd"/>
    <path id="Path_183" data-name="Path 183" d="M782.615,413.437v-1.131h-1.131v-2.262h-4.523V404.39h5.654v6.785h-3.393v1.131h-1.131v-1.131H775.83v1.131H774.7v-1.131h-3.393v-1.131h-6.785V404.39h5.654v6.785h-1.13v1.131h1.13v2.262h-1.13V415.7h1.13v-1.131h1.131v-1.131h1.131V415.7h-1.131v2.262h1.131v1.131h-1.131v3.393h1.131v-1.131h1.131v1.131H774.7v-1.131h-1.131v-1.131h2.262v2.262h1.131v-1.131h1.13v1.131h2.262v-1.131h1.131v1.131h1.131v-1.131h-1.131v-1.131h1.131v-3.393h-1.131V415.7h1.131v-1.131h-1.131v-1.131Zm-10.179-4.523h-1.131v-2.262h2.262V404.39h-2.262v1.131h1.131v2.262h3.393V404.39H774.7v5.655h1.131v-1.131h-2.262v1.131h-1.131v-1.131Zm9.047,0v-3.393h-3.393v3.393Zm-15.833,2.261H764.52v1.131h2.262v1.131H764.52V415.7h1.131v-1.131h1.131V415.7h1.131v-3.393h-1.131v-1.131Zm6.785,4.524h1.131v2.262h-1.131V415.7Zm6.785-7.916h1.131v-1.131h-1.131Zm-11.309-1.131h-1.131v1.131h1.131Zm1.131-1.131h-3.393v3.393h3.393Zm12.44,6.785v1.131h-1.131v-1.131Zm-7.916,3.393v-2.262h3.393v1.131H774.7V415.7Zm1.131,0h2.262v1.13H774.7Zm2.262,1.131h1.13v1.131h1.131v-1.131h-1.131v-3.393h1.131v1.131h1.131v2.262h1.131v1.131h-1.131v1.131h1.131v1.131h-2.262v-1.131h-1.131v1.131h-1.13v-1.131H775.83V417.96h1.131Zm-10.179,3.392h1.131v-1.131h-1.131Zm-2.262-3.392h5.654v5.654H764.52Zm1.131,4.523h3.393V417.96h-3.393Z" transform="translate(-747.013 -395.13)" fill="#f8651b" fill-rule="evenodd"/>
  </g>
</svg>
