<svg version="1.1" width="24" height="24" viewBox="0 0 24 24" xmlns="http://www.w3.org/2000/svg">
  <path fill="#fa6831" d="m8.186331748962402,13.839264869689941c-1.5668764114379883,-1.5472822189331055,-1.764923095703125,-2.4594860076904297,-0.3964424133300781,-4.223360061645508c0.47587108612060547,-0.6147842407226562,0.6942119598388672,-1.229567527770996,0.6942119598388672,-1.8251070976257324c0,-1.2491626739501953,-0.912203311920166,-2.4790806770324707,-2.1018824577331543,-3.908444881439209l-1.8842411041259766,1.7852182388305664c1.7852182388305664,2.0822877883911133,1.6260108947753906,2.300978660583496,0.3369588851928711,4.1253862380981445c-0.41638708114624023,0.595189094543457,-0.5748944282531738,1.1704339981079102,-0.5748944282531738,1.764923095703125c0,1.5073928833007812,1.130544662475586,2.9353580474853516,2.1620659828186035,4.006418228149414l1.7852177619934082,-1.725733757019043l-0.020644187927246094,0.0006999969482421875Zm11.284453392028809,0c-1.5668773651123047,-1.5472822189331055,-1.764923095703125,-2.4594860076904297,-0.3964424133300781,-4.223360061645508c0.4758720397949219,-0.6147842407226562,0.6942119598388672,-1.229567527770996,0.6942119598388672,-1.8251070976257324c0,-1.2491626739501953,-0.9122028350830078,-2.4790806770324707,-2.102231979370117,-3.908444881439209l-1.8842411041259766,1.7852182388305664c1.78521728515625,2.0822877883911133,1.6260108947753906,2.300978660583496,0.3369598388671875,4.1253862380981445c-0.41673851013183594,0.595189094543457,-0.5748968124389648,1.1704339981079102,-0.5748968124389648,1.764923095703125c0,1.5073928833007812,1.1305456161499023,2.9353580474853516,2.1620664596557617,4.006418228149414l1.7852191925048828,-1.725733757019043l-0.0206451416015625,0.0006999969482421875Zm-5.710457801818848,0c-1.5668773651123047,-1.5472822189331055,-1.764923095703125,-2.4594860076904297,-0.39644336700439453,-4.223360061645508c0.47587108612060547,-0.6147842407226562,0.6945629119873047,-1.229567527770996,0.6945629119873047,-1.8251070976257324c0,-1.2491626739501953,-0.9122047424316406,-2.4790806770324707,-2.102231979370117,-3.908444881439209l-1.884242057800293,1.7852182388305664c1.7852182388305664,2.0822877883911133,1.6260108947753906,2.300978660583496,0.3373088836669922,4.1253862380981445c-0.41673755645751953,0.595189094543457,-0.5752449035644531,1.1704339981079102,-0.5752449035644531,1.764923095703125c0,1.5073928833007812,1.1305456161499023,2.9353580474853516,2.1620664596557617,4.006418228149414l1.7852182388305664,-1.725733757019043l-0.0206451416015625,0.0006999969482421875Z"></path>
  <path fill="white" fill-rule="nonzero" d="m2.000002145767212,17.35231590270996l19.993602514266968,0l0,2.7572574615478516l-19.993602514266968,0Z"></path>
</svg>
