<svg xmlns="http://www.w3.org/2000/svg" width="21.284" height="16.552" viewBox="0 0 21.284 16.552">
  <g id="Layer_x0020_1" transform="translate(0.02)">
    <g id="_2128724234704" transform="translate(-0.02)">
      <path id="iconmonstr-loading-20.svg" d="M11.52,0V15.529a1.024,1.024,0,0,0,2.047,0V0Z" transform="translate(-1.839)" fill="#fff" fill-rule="evenodd"/>
      <path id="iconmonstr-gear-7.svg" d="M9.577,9.529V8.489L8.6,8.245q-.05-.239-.126-.478l.721-.7-.52-.906L7.7,6.433a3.327,3.327,0,0,0-.344-.344l.277-.973L6.725,4.6l-.7.721a3.979,3.979,0,0,0-.478-.126L5.3,4.21H4.259l-.243.982q-.239.05-.478.126l-.7-.721-.906.52.277.973a3.327,3.327,0,0,0-.344.344L.886,6.156l-.52.906.721.7a3.979,3.979,0,0,0-.126.478l-.982.243v1.04l.982.243q.05.239.126.478l-.721.7.52.906.973-.277a3.327,3.327,0,0,0,.344.344l-.277.973.906.52.7-.721a3.979,3.979,0,0,0,.478.126l.243.982H5.3l.243-.982q.239-.05.478-.126l.7.721.906-.52-.277-.973a3.327,3.327,0,0,0,.344-.344l.973.277.52-.906-.721-.7A3.979,3.979,0,0,0,8.6,9.772l.982-.243h0ZM4.787,10.6A1.594,1.594,0,1,1,6.381,9.009,1.593,1.593,0,0,1,4.787,10.6Z" transform="translate(0.02 -0.678)" fill-rule="evenodd"/>
      <path id="iconmonstr-gear-7.svg_0" d="M23.257,10.753l.268-1.007-.881-.487a4.87,4.87,0,0,0,0-.495l.881-.487-.268-1.007-1.007.017a4.314,4.314,0,0,0-.243-.428L22.527,6l-.738-.738-.864.52a2.682,2.682,0,0,0-.428-.243l.017-1.007L19.507,4.26l-.487.881a4.87,4.87,0,0,0-.495,0l-.487-.881-1.007.268.017,1.007a4.314,4.314,0,0,0-.428.243l-.864-.52L15.018,6l.52.864a3.533,3.533,0,0,0-.243.428l-1.007-.017L14.02,8.279l.881.487a4.87,4.87,0,0,0,0,.495l-.881.487.268,1.007,1.007-.017c.076.143.151.285.243.428l-.52.864.738.738.864-.52a2.682,2.682,0,0,0,.428.243L17.032,13.5l1.007.268.487-.881a4.87,4.87,0,0,0,.495,0l.487.881,1.007-.268L20.5,12.49c.151-.076.285-.159.428-.243l.864.52.738-.738-.52-.864a2.682,2.682,0,0,0,.243-.428l1.007.017h0Zm-4.908-.193A1.6,1.6,0,1,1,20.3,9.428,1.594,1.594,0,0,1,18.349,10.56Z" transform="translate(-2.241 -0.686)" fill-rule="evenodd"/>
    </g>
  </g>
</svg>
