<svg xmlns="http://www.w3.org/2000/svg" width="64" height="64" fill-rule="evenodd" clip-rule="evenodd" image-rendering="optimizeQuality" shape-rendering="geometricPrecision" text-rendering="geometricPrecision" viewBox="0 0 235.3 235.3"><path fill="#313131" d="M-0 57.81l235.3 0 0 -18.83 -235.3 0 0 18.83zm74.52 99.77c1.01,2.96 -0.58,6.18 -3.55,7.18 -2.96,1.01 -6.18,-0.58 -7.18,-3.55l-28.56 -83.51c-1,-2.96 0.58,-6.18 3.55,-7.18 2.96,-1.01 6.18,0.58 7.18,3.55l28.56 83.51zm97 3.64c-1.01,2.96 -4.22,4.55 -7.18,3.55 -2.96,-1 -4.55,-4.22 -3.55,-7.18l28.56 -83.51c1.01,-2.96 4.22,-4.55 7.18,-3.55 2.96,1 4.55,4.22 3.55,7.18l-28.56 83.51zm-23.11 -86.13c0.44,-3.1 3.31,-5.25 6.41,-4.81 3.1,0.44 5.25,3.31 4.81,6.41l-12.15 83.51c-0.44,3.1 -3.31,5.25 -6.41,4.81 -3.1,-0.44 -5.25,-3.31 -4.81,-6.41l12.15 -83.51zm-25.08 84.31c0,3.13 -2.54,5.67 -5.67,5.67 -3.13,0 -5.67,-2.54 -5.67,-5.67l0 -83.51c0,-3.13 2.54,-5.67 5.67,-5.67 3.13,0 5.67,2.54 5.67,5.67l0 83.51zm-24.28 -0.8c0.44,3.1 -1.72,5.97 -4.81,6.41 -3.1,0.44 -5.97,-1.72 -6.41,-4.81l-12.15 -83.51c-0.44,-3.1 1.72,-5.97 4.81,-6.41 3.1,-0.44 5.97,1.72 6.41,4.81l12.15 83.51z"></path><path fill="#fa6831" d="M62.87 174.18H172.42V193.01H62.87z"></path></svg>