<?xml version="1.0" encoding="UTF-8" standalone="no"?>
<!DOCTYPE svg PUBLIC "-//W3C//DTD SVG 1.1//EN" "http://www.w3.org/Graphics/SVG/1.1/DTD/svg11.dtd">
<svg width="100%" height="100%" viewBox="0 0 512 512" version="1.1" xmlns="http://www.w3.org/2000/svg" xmlns:xlink="http://www.w3.org/1999/xlink" xml:space="preserve" xmlns:serif="http://www.serif.com/" style="fill-rule:evenodd;clip-rule:evenodd;stroke-linejoin:round;stroke-miterlimit:2;">
    <g id="_1" transform="matrix(1.28043,0,0,1.28043,-69.3099,-55.1558)">
        <path fill="var(--icon-secondary)" d="M348.49,432.7L261.8,432.7C244.894,432.715 228.122,429.701 212.28,423.8L144.78,398.73C138.978,396.518 135.123,390.923 135.123,384.714C135.123,376.485 141.894,369.714 150.123,369.714C151.864,369.714 153.593,370.017 155.23,370.61L222.72,395.68C235.224,400.326 248.46,402.697 261.8,402.68L348.45,402.68C356.245,402.68 362.66,396.265 362.66,388.47C362.66,380.675 356.245,374.26 348.45,374.26C340.221,374.26 333.45,367.489 333.45,359.26C333.45,351.031 340.221,344.26 348.45,344.26L368.9,344.26C376.695,344.26 383.11,337.845 383.11,330.05C383.11,322.255 376.695,315.84 368.9,315.84C360.671,315.84 353.9,309.069 353.9,300.84C353.9,292.611 360.671,285.84 368.9,285.84L389.34,285.84C389.341,285.84 389.343,285.84 389.344,285.84C397.139,285.84 403.554,279.425 403.554,271.63C403.554,267.862 402.055,264.244 399.39,261.58C396.734,258.904 393.11,257.404 389.34,257.42C381.111,257.42 374.34,250.649 374.34,242.42C374.34,234.191 381.111,227.42 389.34,227.42L409.79,227.42C417.568,227.395 423.954,220.988 423.954,213.21C423.954,209.442 422.455,205.824 419.79,203.16C417.147,200.494 413.544,198.992 409.79,198.99L268.15,198.99C268.144,198.99 268.138,198.99 268.132,198.99C259.903,198.99 253.132,192.219 253.132,183.99C253.132,181.454 253.774,178.96 255,176.74C259.557,167.495 262.66,157.602 264.2,147.41C267.59,125.54 263.41,105.77 251.78,88.65C249.483,85.378 245.727,83.426 241.73,83.426C235.015,83.426 229.481,88.935 229.45,95.65C229.94,147.03 206.2,184.37 160.8,203.65C158.873,204.512 156.786,204.957 154.676,204.957C146.447,204.957 139.676,198.186 139.676,189.957C139.676,183.846 143.41,178.32 149.08,176.04C167.8,168.04 181.44,156.29 189.63,140.96C196.31,128.45 199.63,113.31 199.46,95.96C199.31,77 211,61 229.18,55.34C247.36,49.68 265.99,56.12 276.63,71.8C301.34,108.16 296.88,145.9 290.11,169.01L409.79,169.01C434.041,169.013 453.994,188.969 453.994,213.22C453.994,230.01 444.43,245.408 429.38,252.85C439.508,274.505 430.36,300.653 408.94,311.27C419.073,332.93 409.919,359.086 388.49,369.7C391.243,375.574 392.67,381.983 392.67,388.47C392.67,412.715 372.735,432.673 348.49,432.7Z" style="fill-rule:nonzero;"/>
        <path fill="var(--icon-secondary)" d="M155,410.49L69.13,410.49C60.901,410.49 54.13,403.719 54.13,395.49L54.13,189.86C54.13,181.631 60.901,174.86 69.13,174.86L155,174.86C163.229,174.86 170,181.631 170,189.86L170,395.49C170,403.719 163.229,410.49 155,410.49ZM84.16,380.49L140,380.49L140,204.86L84.13,204.86L84.16,380.49Z" style="fill-rule:nonzero;"/>
    </g>
</svg>
