<?xml version="1.0" encoding="UTF-8"?>
<!DOCTYPE svg PUBLIC "-//W3C//DTD SVG 1.1//EN" "http://www.w3.org/Graphics/SVG/1.1/DTD/svg11.dtd">
<!-- Creator: CorelDRAW 2017 -->
<svg xmlns="http://www.w3.org/2000/svg" xml:space="preserve" width="6.7026mm" height="4.8942mm" version="1.1" style="shape-rendering:geometricPrecision; text-rendering:geometricPrecision; image-rendering:optimizeQuality; fill-rule:evenodd; clip-rule:evenodd"
viewBox="0 0 377.16 275.4"
 xmlns:xlink="http://www.w3.org/1999/xlink">
  <path
   fill="black"
   style="stroke-width:0.0671669"
   d="M 12.490234 0 C 11.700352 0 12.482389 1.3007812 11.253906 1.3007812 C 9.8380283 1.3007812 10.188461 1.3695443 9.5 0.69921875 C 9.1890173 0.39898276 9.0463659 0.005859375 8.6601562 0.005859375 L 1 0.0078125 C 0.49624834 0.017887533 0.072540238 0.3922467 0 0.890625 L 0 17.498047 C 0.01209004 18.044785 0.45258987 18.486629 1 18.498047 L 24.449219 18.498047 C 24.913342 18.445657 25.280313 18.078076 25.332031 17.613281 L 25.332031 3.0058594 C 25.332031 2.590768 24.861181 2.2244598 24.484375 2.1445312 C 24.199587 2.0847527 18.578628 2.1163921 17.671875 2.1210938 C 16.765122 2.1257954 16.66109 1.8405916 16.037109 1.2226562 L 15.212891 0.33789062 C 15.061486 0.18313679 14.946431 0.00094207891 14.669922 0 L 12.490234 0 z "
   transform="scale(14.888289)" />
   <path d="M 351.76,49.1 V 62.24 H 278.08 V 49.11 l 73.68,-0.02 z" style="fill:#ffffff" />
   <path d="M 351.76,77.18 V 90.32 H 278.08 V 77.19 l 73.68,-0.02 z" style="fill:#ffffff" />
   <path d="m 351.76,105.26 v 13.14 h -73.68 v -13.13 h 73.68 v -0.02 z" style="fill:#ffffff" />
   <path d="m 359.65,133.34 v 12.28 h -81.58 v -12.28 z" style="fill:#ffffff" />
   <path d="m 351.76,160.54 v 13.14 h -73.68 v -13.14 z" style="fill:#ffffff" />
   <path d="m 359.65,188.62 v 13.14 h -81.58 v -13.14 z" style="fill:#ffffff" />
   <path d="m 351.76,216.7 v 13.14 H 278.08 V 216.7 Z" style="fill:#ffffff" />
   <path d="m 84.39,212.79 h 93.4 V 184.04 H 117.83 V 84.43 H 84.39 Z" style="fill:#ffffff" />
   <path d="m 351.76,244.77 v 12.28 h -73.68 v -12.28 z" style="fill:#ffffff" />
</svg>
