<svg xmlns="http://www.w3.org/2000/svg" width="64" height="64" fill-rule="evenodd" clip-rule="evenodd" image-rendering="optimizeQuality" shape-rendering="geometricPrecision" text-rendering="geometricPrecision" viewBox="0 0 363.64 363.64"><path fill="#313131" d="M318.16 345.45l-231.74 0c-22.58,0 -40.94,-18.36 -40.94,-40.94l0 -245.39c0,-22.58 18.36,-40.94 40.94,-40.94l109.05 0 0 27.29 -109.05 0 0 218.1 204.45 0 0 -218.1 -40.94 0 0 -27.29 68.11 0 0 327.14 0.13 0.13zm-27.29 -54.46l-197.75 0c-18.73,0 -18.73,27.29 0,27.29l197.75 0 0 -27.29 0 0z"></path><path fill="#fa6831" d="M250.05 18.31L250.05 141.01 222.76 119.92 195.59 141.01 195.59 18.31z"></path></svg>