<?xml version="1.0" encoding="UTF-8"?>
<!DOCTYPE svg PUBLIC "-//W3C//DTD SVG 1.1//EN" "http://www.w3.org/Graphics/SVG/1.1/DTD/svg11.dtd">
<!-- Creator: CorelDRAW 2017 -->
<svg xmlns="http://www.w3.org/2000/svg" xml:space="preserve" width="189px" height="113px" version="1.1" style="shape-rendering:geometricPrecision; text-rendering:geometricPrecision; image-rendering:optimizeQuality; fill-rule:evenodd; clip-rule:evenodd"
viewBox="0 0 25.65 15.33"
 xmlns:xlink="http://www.w3.org/1999/xlink">
 <defs>
  <style type="text/css">
   <![CDATA[
    .fil0 {fill:#313131;fill-rule:nonzero}
    .fil1 {fill:#FA6831;fill-rule:nonzero}
   ]]>
  </style>
 </defs>
 <g id="Layer_x0020_1">
  <metadata id="CorelCorpID_0Corel-Layer"/>
  <g id="_2225129866448">
   <path class="fil0" d="M5.4 1.7l14.84 0c-0.3,0.71 -0.3,1.52 0,2.22l-8.65 0c0.97,0.94 1.61,2.08 2.24,3.21 1.15,2.04 2.29,4.08 6.42,4.25 -0.31,0.71 -0.31,1.52 -0.01,2.24 -5.42,-0.19 -6.88,-2.79 -8.35,-5.4 -1.15,-2.05 -2.3,-4.1 -6.5,-4.28 0.31,-0.71 0.32,-1.52 0.01,-2.24z"/>
   <path class="fil1" d="M22.83 3.96c1.02,0 1.53,-1.24 0.81,-1.95 -0.72,-0.72 -1.95,-0.21 -1.95,0.8 0,0.64 0.51,1.15 1.14,1.15zm0 9.69c1.02,0 1.53,-1.23 0.81,-1.95 -0.72,-0.71 -1.95,-0.2 -1.95,0.81 0,0.63 0.51,1.14 1.14,1.14zm1.99 0.85c-1.1,1.1 -2.88,1.1 -3.98,0 -1.1,-1.1 -1.1,-2.88 0,-3.98 1.1,-1.1 2.88,-1.1 3.98,0 1.1,1.1 1.1,2.88 0,3.98zm-22.01 -10.54c1.02,0 1.53,-1.24 0.81,-1.95 -0.72,-0.72 -1.95,-0.21 -1.95,0.8 0,0.64 0.51,1.15 1.14,1.15zm1.99 0.84c-1.09,1.1 -2.88,1.1 -3.98,0 -1.09,-1.09 -1.09,-2.88 0,-3.98 1.1,-1.09 2.89,-1.09 3.98,0 1.1,1.1 1.1,2.89 0,3.98zm20.02 0c-1.1,1.1 -2.88,1.1 -3.98,0 -1.1,-1.09 -1.1,-2.88 0,-3.98 1.1,-1.09 2.88,-1.09 3.98,0 1.1,1.1 1.1,2.89 0,3.98z"/>
  </g>
 </g>
</svg>
