<svg xmlns="http://www.w3.org/2000/svg">
 <g>
  <path 
    stroke="null" 
    fill="var(--icon-secondary)"
    id="svg_1"
    d="m6.52174,6.57609l-4.47826,0l0,-4.42391l4.47826,0l0,4.42391zm6.71739,-4.42391l-4.47826,0l0,4.42391l4.47826,0l0,-4.42391zm6.71739,0l-4.47826,0l0,4.42391l4.47826,0l0,-4.42391zm-13.43478,6.63587l-4.47826,0l0,4.42391l4.47826,0l0,-4.42391zm6.71739,0l-4.47826,0l0,4.42391l4.47826,0l0,-4.42391zm6.71739,0l-4.47826,0l0,4.42391l4.47826,0l0,-4.42391zm-13.43478,6.63587l-4.47826,0l0,4.42391l4.47826,0l0,-4.42391zm6.71739,0l-4.47826,0l0,4.42391l4.47826,0l0,-4.42391zm6.71739,0l-4.47826,0l0,4.42391l4.47826,0l0,-4.42391z"
  />
 </g>
</svg>