<?xml version="1.0" encoding="UTF-8"?>
<!DOCTYPE svg PUBLIC "-//W3C//DTD SVG 1.1//EN" "http://www.w3.org/Graphics/SVG/1.1/DTD/svg11.dtd">
<!-- Creator: CorelDRAW 2017 -->
<svg xmlns="http://www.w3.org/2000/svg" xml:space="preserve" width="88px" height="88px" version="1.1" style="shape-rendering:geometricPrecision; text-rendering:geometricPrecision; image-rendering:optimizeQuality; fill-rule:evenodd; clip-rule:evenodd"
viewBox="0 0 13.26 13.26"
 xmlns:xlink="http://www.w3.org/1999/xlink">
 <defs>
  <style type="text/css">
   <![CDATA[
    .fil0 {fill:none}
    .fil1 {fill:black}
    .fil2 {fill:#EF7F1A;fill-rule:nonzero}
   ]]>
  </style>
 </defs>
 <g id="Layer_x0020_1">
  <metadata id="CorelCorpID_0Corel-Layer"/>
  <rect class="fil0" width="13.26" height="13.26"/>
  <path class="fil1" d="M1.98 5.69l0.66 0 0 0c0.68,0.09 0.59,2.27 1.41,2.73l1.43 -1.43c0.23,-0.87 0.31,-1.61 0.63,-0.63l0.68 -0.68c-0.21,-0.53 -0.52,-0.97 -1,-0.93 -1.28,0.09 -1.04,4.11 -1.67,1.98 -0.55,-1.87 -0.43,-1.98 -1.85,-1.98 -0.13,0.3 -0.23,0.61 -0.29,0.94zm4.44 1.64c0.66,1.73 1.46,1.6 2.06,-0.38 0.43,-1.44 0.35,-1.47 0.75,-0.11 0.49,1.61 0.6,1.65 1.78,1.63 0.12,-0.3 0.22,-0.62 0.28,-0.94 -1.17,0.03 -0.97,0.06 -1.28,-1.12 -0.18,-0.66 -0.43,-1.53 -1.02,-1.65l-1.03 1.03c-0.26,0.73 -0.4,1.57 -0.58,1.57 -0.11,0 -0.19,-0.3 -0.29,-0.7l-0.67 0.67z"/>
  <path class="fil2" d="M6.63 12.28c-1.56,0 -2.97,-0.63 -4,-1.65 -1.02,-1.03 -1.65,-2.44 -1.65,-4 0,-1.56 0.63,-2.97 1.65,-4 1.03,-1.02 2.44,-1.65 4,-1.65 1.56,0 2.97,0.63 4,1.65 1.02,1.03 1.65,2.44 1.65,4 0,1.56 -0.63,2.97 -1.65,4 -1.03,1.02 -2.44,1.65 -4,1.65zm-3.73 -2.71l6.67 -6.67c-0.81,-0.64 -1.83,-1.02 -2.94,-1.02 -1.31,0 -2.5,0.53 -3.36,1.39 -0.86,0.86 -1.39,2.05 -1.39,3.36 0,1.11 0.38,2.13 1.02,2.94zm7.32 -6.04l-6.69 6.69c0.83,0.72 1.91,1.16 3.1,1.16 1.31,0 2.5,-0.53 3.36,-1.39 0.86,-0.86 1.39,-2.05 1.39,-3.36 0,-1.19 -0.44,-2.27 -1.16,-3.1z"/>
 </g>
</svg>
