<svg 
	xmlns="http://www.w3.org/2000/svg" 
	xml:space="preserve" 
	width="24" 
	height="18" 
	style="shape-rendering:geometricPrecision;text-rendering:geometricPrecision;image-rendering:optimizeQuality;fill-rule:evenodd;clip-rule:evenodd" 
	viewBox="0 0 31.33 23.49">
	<path d="M11.49 7.83 8.09 0h4.81l8.07 7.83c1.79 0 3.82-.02 5.62 0 2.12.07 4.74 1.91 4.74 3.91 0 2.03-2.66 3.88-4.79 3.92h-5.53l-8.1 7.83H8.14l3.39-7.83H6.95l-2.82 2.61H.02l2.27-6.52L.02 5.22h4.1l2.8 2.61h4.58zm3.96 2.61-9.4-.01-2.63-2.61 1.64 3.91-1.67 3.92L6 13.04h9.46l-3.23 7.48 7.73-7.48c2.13 0 4.51.1 6.63 0 1.03-.08 2.11-1.06 2.11-1.3 0-.28-1.19-1.3-2.21-1.31h-6.56l-7.71-7.49 3.24 7.49zm0 0z" style="fill:#000"/>
</svg>