<svg xmlns="http://www.w3.org/2000/svg" fill-rule="evenodd" clip-rule="evenodd" image-rendering="optimizeQuality" shape-rendering="geometricPrecision" text-rendering="geometricPrecision" viewBox="0 0 24 24">
  <path fill="#585858" d="M21.92 20.05l-5.176-5.176c.9716-1.337 1.549-2.982 1.549-4.762 0-4.473-3.636-8.11-8.11-8.11-4.473 0-8.11 3.636-8.11 8.11 0 4.473 3.636 8.11 8.11 8.11 1.693 0 3.271-.5195 4.57-1.414l5.195 5.195 1.962-1.962zM10.18 3.91c3.434 0 6.215 2.78 6.215 6.215 0 3.434-2.78 6.215-6.215 6.215-3.434 0-6.215-2.78-6.215-6.215 0-3.434 2.78-6.215 6.215-6.215z"/>
  <path fill="#fa6831" d="M5.569 10.84c-.3656 0-.6638-.2982-.6638-.6638 0-.3656.2982-.6638.6638-.6638h1.472c.2501 0 .4714.1443.5868.3559l.2982.4906 1.289-3.598c.1251-.3463.5002-.5291.8466-.404.1924.06734.3367.2213.404.404l1.645 4.579.5099-1.385c.0962-.2694.3559-.4329.6253-.4329h1.568c.3656 0 .6638.2982.6638.6638 0 .3656-.2982.6638-.6638.6638h-1.106l-.9812 2.636c-.05772.1924-.2116.3463-.4137.4233-.3463.1251-.7311-.05772-.8466-.404l-1.635-4.56-1.126 3.127c-.0481.1635-.1443.2982-.2982.3944-.3175.1924-.7215.08658-.9139-.2309l-.8369-1.385h-1.097z"/>
</svg>