<svg id="Layer_1" data-name="Layer 1" xmlns="http://www.w3.org/2000/svg" viewBox="0 0 428.98 94.05"><defs><style>.cls-1{fill:#fa6831;}.cls-2{fill:#121212;}</style></defs><polygon class="cls-1" points="0 94.05 32.61 75.24 0 56.43 0 94.05"/><polygon class="cls-1" points="32.61 0 0 18.81 32.61 37.62 32.61 75.24 65.22 56.43 65.22 18.81 32.61 0"/><path class="cls-2" d="M90.87,69.2V18.8h23.9a18,18,0,0,1,9,2.23,15.36,15.36,0,0,1,6.08,6.34,20.25,20.25,0,0,1,2.16,9.57,20.52,20.52,0,0,1-2.16,9.62,15.32,15.32,0,0,1-6.08,6.37,18,18,0,0,1-9,2.23H104.19v14Zm23-26.86a4.51,4.51,0,0,0,3.45-1.47,5.52,5.52,0,0,0,1.37-3.93,5.51,5.51,0,0,0-1.37-3.88,4.45,4.45,0,0,0-3.45-1.52h-9.72v10.8Z"/><path class="cls-2" d="M135.56,69.2V31.76H146.5l.72,2.66h.36a6.28,6.28,0,0,1,2.56-1.87,9.4,9.4,0,0,1,3.92-.79h6.77V43.35h-6.48Q148,43.35,148,50V69.2Z"/><path class="cls-2" d="M176.35,26.72H163.6V16.64h12.75ZM176.2,69.2H163.75V31.76H176.2Z"/><path class="cls-2" d="M182.48,69.2V31.76h10.94l.72,2.88h.36a10.83,10.83,0,0,1,3.82-2.48A15.09,15.09,0,0,1,204.37,31a14.69,14.69,0,0,1,7.49,1.87,13.1,13.1,0,0,1,5.07,5.33,16.85,16.85,0,0,1,1.84,8.06V69.2H206.31V49a5.93,5.93,0,0,0-1.55-4.25,6,6,0,0,0-8.28,0A6,6,0,0,0,194.94,49V69.2Z"/><path class="cls-2" d="M239.29,69.2q-5.83,0-8.86-2.88t-3-8.28V43.35h-5.76V31.76h5.76V20.31h12.45V31.76h8.28V43.35h-8.28V55.3a2.12,2.12,0,0,0,2.52,2.52h5.76V69.2Z"/><path class="cls-2" d="M258.11,68.41a11.19,11.19,0,0,1-4.71-4.11,10.75,10.75,0,0,1-1.62-5.83,11,11,0,0,1,3.89-8.82q3.89-3.34,11.23-3.35h7.85v-.64a4.55,4.55,0,0,0-1.37-3.42,5.2,5.2,0,0,0-8.07,1.4h-12a13,13,0,0,1,2.41-6.26,14.34,14.34,0,0,1,5.73-4.61A19.91,19.91,0,0,1,270,31,20.57,20.57,0,0,1,279.14,33a14.27,14.27,0,0,1,6,5.22,13.68,13.68,0,0,1,2.09,7.49V69.2h-11l-.72-2.88h-.36a10,10,0,0,1-3.78,2.48,15,15,0,0,1-5.94,1.12A16.4,16.4,0,0,1,258.11,68.41Zm15-9.47a5.5,5.5,0,0,0,1.66-4.21v-.65h-5.84a5.77,5.77,0,0,0-3.45.86,2.75,2.75,0,0,0-1.15,2.31,2.85,2.85,0,0,0,1.08,2.37,4.94,4.94,0,0,0,3.16.87A6.41,6.41,0,0,0,273.09,58.94Z"/><path class="cls-2" d="M308.87,68.8A10,10,0,0,1,305,66.1h-.36l-.72,3.1H293V18.8h12.46V34.21h.36a9.11,9.11,0,0,1,3.56-2.2,15.16,15.16,0,0,1,5.58-1,15.93,15.93,0,0,1,8.6,2.45,17.55,17.55,0,0,1,6.27,6.87,21.37,21.37,0,0,1,2.34,10.12,21.4,21.4,0,0,1-2.34,10.08,17.46,17.46,0,0,1-6.27,6.91,15.93,15.93,0,0,1-8.6,2.45A15.12,15.12,0,0,1,308.87,68.8Zm8.75-12.56a8,8,0,0,0,2.05-5.76,8,8,0,0,0-2.05-5.76,7.09,7.09,0,0,0-10.19,0,8.12,8.12,0,0,0-2,5.76,8.12,8.12,0,0,0,2,5.76,7.09,7.09,0,0,0,10.19,0Z"/><path class="cls-2" d="M348.87,69.2H336.42V18.8h12.45Z"/><path class="cls-2" d="M362.72,67.36a18.43,18.43,0,0,1-7.09-7,19.38,19.38,0,0,1-2.56-9.9,19.38,19.38,0,0,1,2.56-9.9,18.43,18.43,0,0,1,7.09-7A20.09,20.09,0,0,1,372.8,31a19.73,19.73,0,0,1,9.86,2.48,17.91,17.91,0,0,1,6.88,6.88A19.75,19.75,0,0,1,392,50.26a16.89,16.89,0,0,1-.36,3.6H365.31a7,7,0,0,0,2.45,4.43,7.34,7.34,0,0,0,5,1.84,8.6,8.6,0,0,0,3.71-.76,7.52,7.52,0,0,0,2.41-1.62H391a17,17,0,0,1-9.28,10.37,20.75,20.75,0,0,1-8.93,1.8A20.09,20.09,0,0,1,362.72,67.36ZM379.85,47a7.4,7.4,0,0,0-2.3-4.57,6.69,6.69,0,0,0-4.75-1.84,7.21,7.21,0,0,0-5,1.84A7.59,7.59,0,0,0,365.31,47Z"/><path class="cls-2" d="M401.79,68.19A13.81,13.81,0,0,1,396,63.37a10.72,10.72,0,0,1-1.84-5.83h12.17A2.9,2.9,0,0,0,407.62,60a6.54,6.54,0,0,0,3.92.94,7,7,0,0,0,3.67-.76,2.2,2.2,0,0,0,1.23-1.9,2.4,2.4,0,0,0-.79-1.91,5.61,5.61,0,0,0-2.81-1l-5.26-.8q-6.56-1-9.83-4A9.79,9.79,0,0,1,394.48,43a10.54,10.54,0,0,1,1.91-6.15,12.74,12.74,0,0,1,5.68-4.4,23.08,23.08,0,0,1,9.11-1.62,21.71,21.71,0,0,1,9.25,1.8,13.85,13.85,0,0,1,5.8,4.68,10.52,10.52,0,0,1,1.94,6H416.08a2.76,2.76,0,0,0-1.26-2.34,6.23,6.23,0,0,0-3.64-.9,5.8,5.8,0,0,0-3.31.79,2.26,2.26,0,0,0-1.15,1.87c0,1.3,1.17,2.12,3.53,2.45l5.4.79q13,2,13,12.1a10.48,10.48,0,0,1-1.91,6.08,12.78,12.78,0,0,1-5.76,4.4,24.26,24.26,0,0,1-9.4,1.61A21.77,21.77,0,0,1,401.79,68.19Z"/><path class="cls-2" d="M280.52,90.37a2.42,2.42,0,0,1-1-.67h-.09l-.18.77h-2.72V77.94h3.1v3.83h.09a2.35,2.35,0,0,1,.89-.54A3.77,3.77,0,0,1,282,81a4,4,0,0,1,2.14.6,4.45,4.45,0,0,1,1.56,1.71,5.74,5.74,0,0,1,0,5A4.32,4.32,0,0,1,284.16,90a3.92,3.92,0,0,1-2.14.61A3.68,3.68,0,0,1,280.52,90.37Zm2.17-3.12a2.23,2.23,0,0,0,0-2.86,1.65,1.65,0,0,0-1.26-.54,1.67,1.67,0,0,0-1.27.54,2.29,2.29,0,0,0,0,2.86,1.67,1.67,0,0,0,1.27.54A1.65,1.65,0,0,0,282.69,87.25Z"/><path class="cls-2" d="M294.13,81.16h3.32l-3.93,11a2.47,2.47,0,0,1-2.73,1.91H288.1V91.21H290a.54.54,0,0,0,.52-.31l.07-.16-3.69-9.58h3.31l1.9,5.3h.36Z"/><path class="cls-2" d="M303.44,90.47V87.25h2.62a.7.7,0,0,0,.55-.2.77.77,0,0,0,.2-.57V77.94h3.31v9.6a2.88,2.88,0,0,1-.77,2.16,2.92,2.92,0,0,1-2.18.77Z"/><path class="cls-2" d="M315.4,89.82a5.82,5.82,0,0,1-2.21-2.3,7.19,7.19,0,0,1,0-6.63,5.86,5.86,0,0,1,2.21-2.29,6.2,6.2,0,0,1,6.23,0,6,6,0,0,1,2.21,2.29,7.27,7.27,0,0,1,0,6.63,6,6,0,0,1-2.21,2.3,6.26,6.26,0,0,1-6.23,0ZM319.94,87a2.84,2.84,0,0,0,1-1.13,3.51,3.51,0,0,0,.38-1.69,3.55,3.55,0,0,0-.38-1.7,2.81,2.81,0,0,0-1-1.12,2.56,2.56,0,0,0-1.42-.4,2.61,2.61,0,0,0-1.43.4,2.84,2.84,0,0,0-1,1.12,3.67,3.67,0,0,0-.38,1.7,3.63,3.63,0,0,0,.38,1.69,2.87,2.87,0,0,0,1,1.13,2.61,2.61,0,0,0,1.43.4A2.56,2.56,0,0,0,319.94,87Z"/><path class="cls-2" d="M328.65,90.14a4.06,4.06,0,0,1-1.83-1.57,4.39,4.39,0,0,1-.62-2.31h3.31a1.36,1.36,0,0,0,.53,1.11,3,3,0,0,0,2.88.11.88.88,0,0,0,.44-.77.78.78,0,0,0-.34-.65,3,3,0,0,0-1.18-.42l-2-.36a4.51,4.51,0,0,1-2.57-1.19,3.36,3.36,0,0,1-.83-2.44,3.68,3.68,0,0,1,.57-2,4,4,0,0,1,1.69-1.41,6.08,6.08,0,0,1,2.63-.52,6.63,6.63,0,0,1,2.84.56A4.15,4.15,0,0,1,336,79.84a4.42,4.42,0,0,1,.6,2.31h-3.31a1.35,1.35,0,0,0-.5-1.09,2,2,0,0,0-1.37-.43,2.14,2.14,0,0,0-1.21.29.89.89,0,0,0-.41.73.72.72,0,0,0,.31.62,2.28,2.28,0,0,0,1,.36l2,.36a5,5,0,0,1,2.74,1.21,3.43,3.43,0,0,1,.84,2.51,3.67,3.67,0,0,1-.58,2.05,3.9,3.9,0,0,1-1.74,1.43,7,7,0,0,1-2.81.52A6.71,6.71,0,0,1,328.65,90.14Z"/><path class="cls-2" d="M347.85,90.47h-8.77V77.94h8.77v3h-5.46v1.84h5.11v2.87h-5.11v1.83h5.46Z"/><path class="cls-2" d="M353.86,90.47h-3.31V77.94h8.72v3h-5.41v2h4.92v2.86h-4.92Z"/><path class="cls-2" d="M366.93,90.47V77.94h5.94a4.47,4.47,0,0,1,2.25.56,3.81,3.81,0,0,1,1.51,1.57,5.54,5.54,0,0,1,0,4.77,3.8,3.8,0,0,1-1.51,1.59,4.47,4.47,0,0,1-2.25.55h-2.63v3.49Zm5.73-6.67a1.16,1.16,0,0,0,.86-.37,1.55,1.55,0,0,0,0-1.94,1.13,1.13,0,0,0-.86-.38h-2.42V83.8Z"/><path class="cls-2" d="M389.91,90.47h-4l-3.08-3.81h-.24v3.81h-3.31V77.94h6.09a4.4,4.4,0,0,1,2.21.56,4,4,0,0,1,1.53,1.55,4.75,4.75,0,0,1,.56,2.33,4.62,4.62,0,0,1-.44,2A3.93,3.93,0,0,1,388,85.86a3.17,3.17,0,0,1-1.56.66Zm-7.35-6.76h2.57a1.14,1.14,0,0,0,.85-.38,1.51,1.51,0,0,0,0-1.93,1.14,1.14,0,0,0-.85-.38h-2.57Z"/><path class="cls-2" d="M394.36,90a4.51,4.51,0,0,1-1.87-1.9,6.06,6.06,0,0,1-.66-2.9V77.94h3.31v7.25a2.26,2.26,0,0,0,.59,1.61,1.92,1.92,0,0,0,1.47.63,2,2,0,0,0,1.47-.63,2.26,2.26,0,0,0,.59-1.61V77.94h3.31v7.25a6,6,0,0,1-.66,2.89A4.65,4.65,0,0,1,400,90a5.75,5.75,0,0,1-2.83.67A5.84,5.84,0,0,1,394.36,90Z"/><path class="cls-2" d="M407.11,90.14a4.06,4.06,0,0,1-1.83-1.57,4.38,4.38,0,0,1-.61-2.31H408a1.33,1.33,0,0,0,.53,1.11,2.34,2.34,0,0,0,1.49.42,2.42,2.42,0,0,0,1.39-.31.89.89,0,0,0,.43-.77.79.79,0,0,0-.33-.65,3.06,3.06,0,0,0-1.19-.42l-2-.36a4.58,4.58,0,0,1-2.57-1.19,3.4,3.4,0,0,1-.83-2.44,3.61,3.61,0,0,1,.58-2,3.87,3.87,0,0,1,1.68-1.41,6.11,6.11,0,0,1,2.63-.52,6.6,6.6,0,0,1,2.84.56,4.15,4.15,0,0,1,1.78,1.57,4.33,4.33,0,0,1,.61,2.31h-3.31a1.38,1.38,0,0,0-.5-1.09,2.05,2.05,0,0,0-1.38-.43,2.08,2.08,0,0,0-1.2.29.86.86,0,0,0-.41.73.74.74,0,0,0,.3.62,2.33,2.33,0,0,0,1,.36l2,.36a5,5,0,0,1,2.74,1.21,3.48,3.48,0,0,1,.84,2.51,3.67,3.67,0,0,1-.59,2.05,3.79,3.79,0,0,1-1.74,1.43,7,7,0,0,1-2.81.52A6.71,6.71,0,0,1,407.11,90.14Z"/><path class="cls-2" d="M429,90.47H425.4l-.66-2.2h-4.49l-.66,2.2H416l4.17-12.53h4.65Zm-6.67-9-1.18,3.94h2.73l-1.2-3.94Z"/></svg>