<svg xmlns="http://www.w3.org/2000/svg" width="64" height="64" fill-rule="evenodd" clip-rule="evenodd" image-rendering="optimizeQuality" shape-rendering="geometricPrecision" text-rendering="geometricPrecision" viewBox="0 0 1322.56 1322.56"><path fill="#313131" d="M1224.72 1007.41c-116.4,189.03 -325.17,315.15 -563.46,315.15 -365.21,0 -661.26,-296.07 -661.26,-661.27 0,-352.46 275.75,-640.47 623.27,-660.16l0 139.2c-270.76,19.46 -484.36,245.24 -484.36,520.95 0,288.49 233.85,522.35 522.35,522.35 185.38,0 348.16,-96.58 440.86,-242.16l122.6 65.94 0 0.02z"></path><path fill="#fa6831" d="M661.24 661.27l0 -661.27c365.21,0 661.26,296.07 661.26,661.27 0,109.34 -27.11,216.97 -78.93,313.26l-582.36 -313.26 0.03 0z"></path></svg>