<svg xmlns="http://www.w3.org/2000/svg" width="30" fill-rule="evenodd" clip-rule="evenodd" image-rendering="optimizeQuality" shape-rendering="geometricPrecision" text-rendering="geometricPrecision" viewBox="0 0 118.6 29.65"><title>Progress</title><path fill="#585858" d="M118.6 14.83c0,-8.19 -6.64,-14.83 -14.83,-14.83l-88.95 0c-8.19,0 -14.83,6.64 -14.83,14.83 0,8.19 6.64,14.83 14.83,14.83l88.95 0c8.19,0 14.83,-6.64 14.83,-14.83l-0 0zm-14.82 -9.88c5.45,0 9.88,4.43 9.88,9.88 0,5.45 -4.43,9.88 -9.88,9.88l-88.95 0c-5.45,0 -9.88,-4.43 -9.88,-9.88 0,-5.45 4.43,-9.88 9.88,-9.88l88.95 0z"></path><rect width="68.83" height="9.88" x="9.88" y="9.88" fill="#fa6831" rx="5.6" ry="5.6"></rect></svg>