<svg xmlns="http://www.w3.org/2000/svg" xmlns:xlink="http://www.w3.org/1999/xlink" width="100.301" height="74.452" viewBox="0 0 100.301 74.452">
  <defs>
    <clipPath id="clip-path">
      <rect width="100.301" height="74.452" fill="none"/>
    </clipPath>
  </defs>
  <g id="refill_color" clip-path="url(#clip-path)">
    <path id="iconmonstr-medical-13.svg" d="M69.7,5.266s-10.268-1.784-13.744-2.4c-7.383-1.259-11-.813-17.389,2.741L3.948,25.592A7.9,7.9,0,0,0,.919,36.123q9.757,17.389,19.946,34.542a8.058,8.058,0,0,0,10.727,2.793l34.647-20c6.95-4.052,8.826-7.777,11.567-15.553C79,34.523,82.043,26.615,82.043,26.615l9.127-5.272-3.947-6.832L75.669,21.173c-2.99,8.419-6.059,21.205-13.835,25.717L27.645,66.626,7.909,32.438,42.1,12.7C50.32,8.006,62,11.81,71.237,13.514L82.79,6.852,78.843.02,69.715,5.292Z" transform="translate(0.003 -0.02)" fill="#fff" fill-rule="evenodd"/>
    <path id="iconmonstr-medical-13.svg_0" d="M66.712,26.033,8.25,26.02l17.429,30.2,32.733-18.9c3.672-2.138,6.269-6.478,8.3-11.291Z" transform="translate(2.574 8.077)" fill="#ec691f" fill-rule="evenodd"/>
    <path id="Path_103" data-name="Path 103" d="M79.326,31.87A8.095,8.095,0,1,1,64.14,35.778a8.2,8.2,0,0,1,1-3.908L72.231,18.9l7.095,12.97Z" transform="translate(19.978 5.859)" fill="#ec691f" fill-rule="evenodd"/>
    <path id="iconmonstr-medical-13.svg_1" d="M69.7,5.266s-10.268-1.784-13.744-2.4c-7.383-1.259-11-.813-17.389,2.741L3.948,25.592A7.9,7.9,0,0,0,.919,36.123q9.757,17.389,19.946,34.542a8.058,8.058,0,0,0,10.727,2.793l34.647-20c6.95-4.052,8.826-7.777,11.567-15.553C79,34.523,82.043,26.615,82.043,26.615l9.127-5.272-3.947-6.832L75.669,21.173c-2.99,8.419-6.059,21.205-13.835,25.717L27.645,66.626,7.909,32.438,42.1,12.7C50.32,8.006,62,11.81,71.237,13.514L82.79,6.852,78.843.02,69.715,5.292Z" transform="translate(0.003 -0.02)" fill="#fff" fill-rule="evenodd"/>
  </g>
</svg>
