<svg viewBox="0 0 48.33 48.33">
 <g>
  <path fill="var(--icon-secondary)" d="M9.13 23.92l0 -2.62 1.39 0c0.72,0 1.41,0.35 1.41,1.28 0,0.98 -0.66,1.34 -1.44,1.34l-1.36 0zm2.87 4.08l1.54 0 -1.72 -3.34 0 -0.02c0.71,-0.24 1.55,-0.82 1.55,-2.13 0,-1 -0.5,-1.59 -1.19,-1.92 -0.46,-0.21 -1.01,-0.3 -1.52,-0.3l-2.94 0 0 7.71 1.41 0 0 -3.05 1.37 0 1.5 3.05zm2.83 0l5.11 0 0 -1.1 -3.7 0 0 -2.23 3.39 0 0 -1.09 -3.39 0 0 -2.19 3.62 0 0 -1.11 -5.03 0 0 7.71zm11.96 -5.62c-0.06,-1.29 -0.89,-2.2 -2.74,-2.2 -1.75,0 -2.78,0.97 -2.78,2.29 0,1.15 0.7,1.9 2,2.15l1.13 0.21c0.86,0.16 1.17,0.5 1.17,1.09 0,0.65 -0.42,1.19 -1.51,1.19 -0.99,0 -1.49,-0.57 -1.58,-1.3l-1.46 0c0.08,1.49 1.15,2.35 3.01,2.35 1.92,0 2.99,-0.91 2.99,-2.47 0,-1.13 -0.61,-1.85 -2.02,-2.12l-1.15 -0.21c-0.79,-0.15 -1.11,-0.49 -1.11,-1.07 0,-0.6 0.49,-1.07 1.31,-1.07 0.89,0 1.26,0.55 1.32,1.16l1.43 0zm1.62 5.62l5.11 0 0 -1.1 -3.7 0 0 -2.23 3.39 0 0 -1.09 -3.39 0 0 -2.19 3.62 0 0 -1.11 -5.03 0 0 7.71zm12.21 -7.71l-6.24 0 0 1.13 2.42 0 0 6.58 1.4 0 0 -6.58 2.42 0 0 -1.13z"/>
  <path fill="var(--icon-secondary)" d="M34.18 0l14.15 14.15 0 20.03 -14.15 14.15 -20.03 0 -14.15 -14.15 0 -20.03c4.73,-4.7 9.45,-9.42 14.15,-14.15l20.03 0zm-18.4 3.92l-11.86 11.86 0 16.77 11.86 11.86 16.77 0 11.86 -11.86 0 -16.77 -11.86 -11.86 -16.77 0z"/>
 </g>
</svg>
