<svg xmlns="http://www.w3.org/2000/svg" xml:space="preserve" width="102.831" height="102.831" style="shape-rendering:geometricPrecision;text-rendering:geometricPrecision;image-rendering:optimizeQuality;fill-rule:evenodd;clip-rule:evenodd" viewBox="0 0 1778.09 1778.09"><path d="M0 0h1778.09v1778.09H0z" style="fill:none"/><path d="M938.46 522.03c17.87 50.22 22.93 82.33 61.77 98.42 38.95 16.16 65.63-3.2 113.39-25.87l69.86 69.86c-22.81 48.13-42.03 74.52-25.87 113.4 16.02 38.77 47.95 43.79 98.42 61.73v98.9c-49.91 17.73-82.4 22.93-98.49 61.77-16.16 38.91 3.19 65.52 25.94 113.35l-69.86 69.86c-48.32-22.93-74.55-42.03-113.17-25.94-39.09 16.21-44.22 48.5-62.03 98.53h-98.83c-17.87-50.22-22.93-82.4-61.77-98.49-38.95-16.16-65.56 3.19-113.39 25.87l-69.86-69.86c22.38-47.16 42.14-74.14 25.87-113.39-16.09-38.84-48.5-43.98-98.42-61.73v-98.91c49.98-17.73 82.33-22.81 98.42-61.73 16.16-38.95-3.12-65.44-25.87-113.39l69.86-69.86c48.2 22.89 74.51 42.03 113.39 25.87 38.84-16.09 43.97-48.46 61.77-98.42l98.86.02zm-49.43 489.35c-67.59 0-122.34-54.81-122.34-122.34 0-67.6 54.75-122.39 122.34-122.39 67.53 0 122.35 54.81 122.35 122.39 0 67.53-54.82 122.34-122.35 122.34z" style="fill:#000"/><path d="M305.36 706.27c-18.17 57.94-28.02 119.59-28.02 183.51 0 337.65 274.1 611.67 611.67 611.67 337.65 0 611.67-274.03 611.67-611.67 0-337.57-274.03-611.66-611.67-611.66-129.74 0-249.75 40.85-348.83 109.86l104.17 134.8H241.88l118.37-367.75 105.09 135.98c119.78-84.96 265.84-135.24 423.72-135.24 405.1 0 734.01 328.91 734.01 734.01 0 405.1-328.91 733.27-734.01 733.27-405.1 0-734.01-328.17-734.01-733.27 0-63.37 8.07-124.84 23.19-183.51h127.13z" style="fill:#ef7f1a"/></svg>