<svg xmlns="http://www.w3.org/2000/svg" viewBox="0 0 24 24">
  <path d="M12 6.872c-2.838 0-5.127 2.289-5.127 5.128S9.162 17.128 12 17.128c2.838 0 5.127-2.289 5.127-5.128S14.838 6.872 12 6.872zm0 8.461c-1.834 0-3.333-1.495-3.333-3.334S10.162 8.665 12 8.665s3.333 1.495 3.333 3.334-1.499 3.334-3.333 3.334zm6.532-8.671c0 .665-.5354 1.196-1.196 1.196-.6648 0-1.196-.5355-1.196-1.196s.5354-1.196 1.196-1.196c.6603 0 1.196.5355 1.196 1.196zm3.395 1.214c-.07585-1.602-.4417-3.021-1.615-4.191-1.169-1.169-2.588-1.535-4.19-1.616-1.651-.09372-6.599-.09372-8.25 0-1.597.07587-3.016.4418-4.19 1.611-1.173 1.169-1.535 2.588-1.615 4.191-.0937 1.651-.0937 6.6 0 8.252.07585 1.602.4417 3.021 1.615 4.191 1.173 1.169 2.588 1.535 4.19 1.616 1.651.09372 6.599.09372 8.25 0 1.602-.07587 3.021-.4418 4.19-1.616 1.169-1.169 1.535-2.588 1.615-4.191.0937-1.651.0937-6.596 0-8.247zm-2.133 10.02c-.348.8747-1.022 1.549-1.901 1.901-1.316.5221-4.439.4017-5.894.4017s-4.582.116-5.894-.4017c-.8745-.3481-1.548-1.022-1.901-1.901-.522-1.317-.4016-4.44-.4016-5.895s-.116-4.583.4016-5.895c.348-.8747 1.022-1.549 1.901-1.901 1.316-.5221 4.439-.4017 5.894-.4017s4.582-.116 5.894.4017c.8745.3481 1.548 1.022 1.901 1.901.522 1.317.4016 4.44.4016 5.895s.1205 4.583-.4016 5.895z"/>
</svg>