<svg version="1.1" viewBox="0 0 24 24" xmlns="http://www.w3.org/2000/svg">
  <path fill="black" d="m18.91 22c-0.8242 0-1.599-0.3208-2.182-0.9033l-7.417-7.342c-0.3342-0.3342-0.7875-0.5067-1.263-0.4675-1.644 0.125-3.24-0.465-4.402-1.627-1.065-1.065-1.652-2.473-1.652-3.967 0-1.103 0.3758-2.392 0.75-3.09l2.571 2.571 4.631-4.626c2.166 1.07 3.441 3.24 3.26 5.577-0.03583 0.4692 0.1342 0.93 0.4684 1.263l7.416 7.343c0.5834 0.5833 0.9034 1.358 0.9034 2.182 8.33e-4 1.702-1.383 3.086-3.085 3.086zm-8.426-9.418 7.417 7.342c0.27 0.27 0.6284 0.4183 1.009 0.4183 0.7875 0 1.428-0.6408 1.428-1.428 0-0.3817-0.1492-0.74-0.4184-1.01l-7.417-7.342c-0.6767-0.6767-1.022-1.612-0.9484-2.563 0.09584-1.24-0.395-2.483-1.389-3.324l-4.849 4.843-1.658-1.658c0.04167 0.9875 0.4509 1.915 1.163 2.627 0.8184 0.8183 1.938 1.236 3.101 1.146 0.9525-0.07417 1.882 0.2658 2.563 0.9483zm9.16 6.306c0 0.42-0.3408 0.7617-0.7609 0.7617-0.4209 0-0.7617-0.3417-0.7617-0.7617s0.3408-0.7608 0.7617-0.7608c0.42 0 0.7609 0.34 0.7609 0.7608zm-9.844-10.15-0.58 0.5783-1.298-1.298 0.58-0.58zm-2.277-0.32-0.58 0.5792 1.298 1.298 0.58-0.5792zm1.637-6.126-2.202 2.202-1.837-1.836c0.7259-0.4233 1.556-0.6533 2.409-0.6533 0.5375 0 1.085 0.09167 1.62 0.2833z"/>
</svg>
