<?xml version="1.0" encoding="UTF-8" standalone="no"?>
<!DOCTYPE svg PUBLIC "-//W3C//DTD SVG 1.1//EN" "http://www.w3.org/Graphics/SVG/1.1/DTD/svg11.dtd">
<svg width="100%" height="100%" viewBox="0 0 24 24" version="1.1" xmlns="http://www.w3.org/2000/svg" xmlns:xlink="http://www.w3.org/1999/xlink" xml:space="preserve" xmlns:serif="http://www.serif.com/" style="fill-rule:evenodd;clip-rule:evenodd;stroke-linejoin:round;stroke-miterlimit:2;">
    <path d="M12.05,4.14C13.817,5.721 14.562,7.396 14.469,9.628C14.469,11.768 13.818,14.465 12.981,17.535L12.888,17.814L11.121,17.814C10.284,14.651 9.54,11.954 9.54,9.628C9.54,7.395 10.284,5.721 12.052,4.14L12.05,4.14ZM12.05,2C9.073,4.14 7.864,6.558 7.864,9.628C7.864,12.419 8.794,15.675 9.817,19.488L14.189,19.488C15.212,15.581 16.142,12.325 16.142,9.628C16.235,6.558 14.933,4.14 12.049,2L12.05,2ZM19.213,19.3L16.98,15.3C16.794,15.858 16.701,16.509 16.515,17.067L18.003,19.765L16.143,18.556L15.864,19.858L19.213,21.998C19.306,21.533 19.492,20.975 19.492,20.51C19.492,20.045 19.399,19.673 19.213,19.301L19.213,19.3ZM4.513,20.509C4.513,20.974 4.699,21.532 4.885,21.997L8.234,19.857L7.862,18.555L6.002,19.764L7.49,17.066C7.304,16.508 7.211,15.857 7.025,15.299L4.885,19.299C4.699,19.671 4.513,20.043 4.513,20.508L4.513,20.509ZM13.164,21.997L10.838,21.997L10.373,20.323L13.629,20.323L13.164,21.997ZM13.629,8.787C12.606,8.88 11.489,8.88 10.373,8.787C10.28,9.279 10.28,9.783 10.373,10.275C10.838,10.368 11.396,10.368 12.047,10.368C12.605,10.368 13.163,10.368 13.628,10.275C13.721,9.903 13.814,9.159 13.628,8.787L13.629,8.787Z" style="fill:white;"/>
</svg>
