<svg xmlns="http://www.w3.org/2000/svg" xml:space="preserve" width="65.933" height="60.099" style="shape-rendering:geometricPrecision;text-rendering:geometricPrecision;image-rendering:optimizeQuality;fill-rule:evenodd;clip-rule:evenodd" viewBox="0 0 829.31 755.92">
  <path d="M0 382.88v-82.66C0 67.68 330.09-63.08 586.73 30.5c125.31 45.7 229.05 144.7 227.82 269.72h.01v85.07l-49.27-9.7L412 306l.86 409.75c-114.88-12.59-214.77-35.74-304.11-113.08C43.21 545.93 0 469.39 0 382.89zM109.68 505.5c54.6 72.83 147.45 116.92 236.49 133.59l-.22-41.65c-86.17-9.6-170.61-40.1-236.26-91.94zm638.23-201.1C752.2 92.98 373.36-16.8 159.09 140.73-31.7 280.99 92.37 498.3 345.45 530.41V225.12l402.46 79.27z" style="fill:#313131"/>
  <path d="m829.31 414.26-.33 127.53C770.6 693.15 582.67 755.92 431.02 755.92V331.91c132.77 26.08 265.55 52.2 398.29 78.45v3.9zM497.58 634.83v57.28c79.9-9.79 163.4-40.38 220.89-95.6 18.56-17.83 33.59-37.57 44.29-58.77v-20.79c-68.2 67.76-166.66 106.77-265.18 117.89zm0-222.05v155.1c83.78-10.69 173.4-45.78 229.75-109.85l-229.75-45.25z" style="fill:#fa6831"/>
</svg>