<svg xmlns="http://www.w3.org/2000/svg" xml:space="preserve" width="90.019" height="90.019" style="shape-rendering:geometricPrecision;text-rendering:geometricPrecision;image-rendering:optimizeQuality;fill-rule:evenodd;clip-rule:evenodd" viewBox="0 0 381.28 381.28"><path d="M0 0h381.28v381.28H0z" style="fill:none"/><path d="M272.15 381.28c-20.21-12.28-42.84-20.98-67.02-25.19 5.59-34.92 21.32-76.67 27.97-121.81 4.42-30.03 7.13-56.49 7.66-86.9 6.57 3.86 13.12-5.76 9.34-13.83 16.24 13.3 30.57 37.83 40.16 55.98l3.23 4.98c.16-7.04 1.59-8.56 1.42-24.69-.33-30.92-21.75-52.91-23.32-58.78 19.21 10.16 39.68 22.52 55.79 37.26 7.82 7.15 8.7 9.44 14 17.47 2.32-11.84 5.96-25.96-9.5-46.4-8.85-11.7-24.53-22.77-37.02-30.23 12.32 0 27.64 2.03 38.23 4.19 21.57 4.41 24.22 10.27 31.56 12.23-15.29-22.83-30.07-41.34-58.9-47.83-13.9-3.13-21.35-.06-34.14-.06 5.05-6.89 12.42-19.28 36.95-28.74-18.72-4.36-32.28-5.21-49.66 2.33-10.71 4.65-30.12 19.1-32.44 27.77-3.28-2.2-8.64-10.56-16.22-16.62-17.85-14.29-31.23-17.74-47.15-13.9-6.37 2.73-18.05 8.07-21.47 12.74 14.15 0 40.02 14.24 47.89 26-27.5-.61-54.75-3.55-77 18.79-4.66 4.67-11.69 13.94-13.31 20.89 22.54-9.28 59.17-21.23 82.1-8.21-9.68 8.41-19.31 10.37-32.53 23.57-7.06 7.05-17.05 26.78-18.1 39.37 19.69-13.18 51.08-33.79 75.76-37.67-4.43 7.47-.28 18.41 7.21 18.41 3.29 0 6.18-2.25 7.75-5.6.99 3.33 1.29 7.83 1 16.7-1.07 32.99-7.05 73.34-12.93 103.38-6.49 33.16-17.84 65.38-30.85 96.45-5.09-.18-12.15.04-17.25.25-.39-22.29-2.01-37.1-6.17-58.19-3.4-17.27-5.99-28.81-11.89-43.75-3.47-8.77-1.69-12.26-.31-16.09 7.63.17 43.4 11.57 49.02 14.27-.71-8.48-8.46-16.21-13.83-20.72-9.58-8.07-17.4-8.95-20.14-12.7 19-4.43 23.05-10.95 47.89-10.95-10.65-19.07-44.43-10.69-58.06-10.39.11-7.94 13.54-17.91 18.37-21.08-15.62-3.01-34.71-3.93-52 21.89-5.87-3.93-36.06-25.87-54.73-12.32 8.81 2.05 20.09 13.75 24.63 20.53-24.97 2.08-47.89 29.05-47.89 53.37 16.45-11.02 33.45-26.89 54.73-27.37-12.93 24.44-19.16 35.9-19.16 65.68 3.34-8.49 27.18-51.6 42.56-49.23-4.33 5.27-1.42 14.69 4.6 14.69 3.15 0 5.78-2.78 6.49-6.52 7.48 10.54 11.6 28.64 14.17 39.82 4.35 18.9 5.77 38.16 5.98 60.37-26.03 3.85-53.03 13.29-74.61 26.4h201.15zm-.55-323.62z" style="fill:#2b2a29"/></svg>