<svg xmlns="http://www.w3.org/2000/svg" fill-rule="evenodd" clip-rule="evenodd" image-rendering="optimizeQuality" shape-rendering="geometricPrecision" text-rendering="geometricPrecision" viewBox="0 0 24 24">
  <path fill="#fa6831" d="M14.91 16.59c0 1.609-1.305 2.914-2.914 2.914-1.609 0-2.914-1.305-2.914-2.914 0-.9566.5043-1.743 1.164-2.321.838-.7341 1.342-1.446 1.342-2.684v-.4153h.838v.4153c0 1.238.4894 1.95 1.342 2.684.66.5784 1.164 1.364 1.164 2.321h-.01483z"/>
  <path fill="#585858" d="M14.91 4.914v6.266c0 .4894.2225.9566.5933 1.275 1.172.9937 1.906 2.477 1.906 4.131 0 2.989-2.425 5.413-5.413 5.413-2.989 0-5.413-2.425-5.413-5.413 0-1.654.749-3.137 1.906-4.131.3708-.3189.5933-.7861.5933-1.275V4.914c0-1.609 1.305-2.914 2.914-2.914 1.609 0 2.914 1.305 2.914 2.914zm-4.168 0v6.266c0 1.305-.4227 1.906-1.172 2.544-.838.7193-1.327 1.758-1.327 2.848 0 2.062 1.691 3.752 3.752 3.752s3.752-1.691 3.752-3.752c0-1.098-.4746-2.143-1.327-2.848-.749-.6303-1.172-1.238-1.172-2.544V4.914c0-.6822-.571-1.253-1.253-1.253-.6822 0-1.253.571-1.253 1.253z"/>
</svg>