<?xml version="1.0" encoding="UTF-8"?>
<!DOCTYPE svg PUBLIC "-//W3C//DTD SVG 1.1//EN" "http://www.w3.org/Graphics/SVG/1.1/DTD/svg11.dtd">
<!-- Creator: CorelDRAW 2017 -->
<svg xmlns="http://www.w3.org/2000/svg" xml:space="preserve" width="41px" height="72px" version="1.1" style="shape-rendering:geometricPrecision; text-rendering:geometricPrecision; image-rendering:optimizeQuality; fill-rule:evenodd; clip-rule:evenodd"
viewBox="0 0 0.67 1.17"
 xmlns:xlink="http://www.w3.org/1999/xlink">
 <defs>
  <style type="text/css">
   <![CDATA[
    .fil0 {fill:black;fill-rule:nonzero}
   ]]>
  </style>
 </defs>
 <g id="Layer_x0020_1">
  <metadata id="CorelCorpID_0Corel-Layer"/>
  <path id="iconmonstr-arrow-up-lined.svg" class="fil0" d="M0.66 0.31c0,0 -0.22,-0.22 -0.3,-0.3 -0.01,-0.01 -0.02,-0.01 -0.02,-0.01 -0.01,0 -0.02,0 -0.03,0.01 -0.08,0.08 -0.3,0.3 -0.3,0.3 -0.01,0.01 -0.01,0.02 -0.01,0.03 0,0 0,0.01 0.01,0.02 0.01,0.01 0.04,0.01 0.05,0l0.24 -0.24c0,0.31 0,0.62 0,0.93l-0.24 -0.24c-0.01,-0.02 -0.04,-0.02 -0.05,0 -0.01,0 -0.01,0.01 -0.01,0.02 0,0.01 0,0.02 0.01,0.03 0,0 0.22,0.21 0.3,0.3 0.01,0 0.02,0.01 0.03,0.01 0,0 0.01,-0.01 0.02,-0.01 0.08,-0.09 0.3,-0.3 0.3,-0.3l0 0c0.01,-0.01 0.01,-0.02 0.01,-0.03 0,-0.01 0,-0.02 -0.01,-0.02 -0.01,-0.02 -0.04,-0.02 -0.05,0l-0.24 0.24c0,-0.31 0,-0.62 0,-0.93l0.24 0.24c0.01,0.01 0.04,0.01 0.05,0 0.01,-0.01 0.01,-0.02 0.01,-0.02 0,-0.01 0,-0.02 -0.01,-0.03l0 0z"/>
 </g>
</svg>
