<?xml version="1.0" ?>
<svg height="24" id="icon" viewBox="0 0 24 24" width="24" xmlns="http://www.w3.org/2000/svg">
    <defs>
        <style>
            .cls-1 {
            fill: none;
            }
        </style>
    </defs>
    <path
     fill="var(--icon-secondary)"
     d="m 21.369183,18.797752 a 2.5086005,2.5086005 0 0 0 -1.089046,0.254851 L 16.636571,15.408782 H 13.744 v 1.694485 h 2.190884 l 3.147167,3.147337 a 2.5133451,2.5133451 0 0 0 -0.254596,1.088876 2.5417277,2.5417277 0 1 0 2.541728,-2.541728 z m 0,3.388971 a 0.84724256,0.84724256 0 1 1 0.847242,-0.847243 0.84800508,0.84800508 0 0 1 -0.847242,0.847243 z"
     id="path6"
     style="stroke-width:0.847243" />
  <path
     fill="var(--icon-secondary)"
     d="M 21.369183,9.4780839 A 2.537322,2.537322 0 0 0 18.983602,11.172569 H 13.744 v 1.694485 h 5.239602 a 2.5372373,2.5372373 0 1 0 2.385581,-3.3889701 z m 0,3.3889701 a 0.84724256,0.84724256 0 1 1 0.847242,-0.847242 0.84800508,0.84800508 0 0 1 -0.847242,0.847242 z"
     id="path8"
     style="stroke-width:0.847243" />
  <path
     fill="var(--icon-primary)"
     d="M 21.369183,0.15841574 A 2.5445236,2.5445236 0 0 0 18.827455,2.7001435 2.5126673,2.5126673 0 0 0 19.12238,3.8634076 L 15.943187,6.9363563 H 13.744 v 1.6944856 h 2.884268 l 3.726935,-3.6028147 a 2.5406263,2.5406263 0 1 0 1.01398,-4.86961146 z m 0,3.38897036 a 0.84724256,0.84724256 0 1 1 0.847242,-0.8472426 0.84800508,0.84800508 0 0 1 -0.847242,0.8472426 z"
     id="path10"
     style="stroke-width:0.847243" />
  <path
     fill="var(--icon-secondary)"
     d="m 13.744,3.5473861 h 1.694485 V 1.852901 H 13.744 A 3.3682975,3.3682975 0 0 0 11.202272,3.0240444 3.3682975,3.3682975 0 0 0 8.6605441,1.852901 H 7.8133021 A 7.6336555,7.6336555 0 0 0 0.18811879,9.4780839 v 5.0834551 a 7.6336555,7.6336555 0 0 0 7.62518331,7.625184 h 0.847242 A 3.3682975,3.3682975 0 0 0 11.202272,21.015579 3.3682975,3.3682975 0 0 0 13.744,22.186723 h 1.694485 V 20.492237 H 13.744 A 1.6964338,1.6964338 0 0 1 12.049515,18.797752 V 5.2418712 A 1.6964338,1.6964338 0 0 1 13.744,3.5473861 Z M 8.6605441,20.492237 H 7.8133021 A 5.93468,5.93468 0 0 1 1.9503833,15.408782 H 3.5770891 V 13.714297 H 1.8826039 v -3.38897 H 4.4243321 A 2.5445236,2.5445236 0 0 0 6.9660591,7.7835989 V 6.0891138 h -1.694485 v 1.6944851 a 0.84800508,0.84800508 0 0 1 -0.847242,0.847243 H 1.9503833 A 5.93468,5.93468 0 0 1 7.8133021,3.5473861 h 0.847242 A 1.6964338,1.6964338 0 0 1 10.355029,5.2418712 V 8.6308419 H 8.6605441 v 1.6944851 h 1.6944849 v 3.38897 H 8.6605441 a 2.5445236,2.5445236 0 0 0 -2.541727,2.541728 v 1.694485 h 1.694485 v -1.694485 a 0.84800508,0.84800508 0 0 1 0.847242,-0.847243 h 1.6944849 v 3.38897 a 1.6964338,1.6964338 0 0 1 -1.6944849,1.694485 z"
     id="path12"
     style="stroke-width:0.847243" />
</svg>