<svg 
	xmlns="http://www.w3.org/2000/svg" 
	xml:space="preserve" 
	width="47.419" height="53.878" 
	style="shape-rendering:geometricPrecision;text-rendering:geometricPrecision;image-rendering:optimizeQuality;fill-rule:evenodd;clip-rule:evenodd" viewBox="0 0 178.87 203.24">
	<path d="M8.33 39.16c2.68-.37 5.29-1.15 7.73-2.31 2.95-1.28 4.86-2.84 8.29-3.22-4.84 10.05-9.88 11.39-11.07 29.47-2.03 30.78 11.54 62.89 37.31 95.76 30.12 38.42 75.9 48.56 104.39 42.92 6.45-1.27 21.32-6.38 23.43-11.68.7-1.74.5-1.07.09-2.51-6.43-.84-23.53 8.5-49.75 4.44-20.39-3.14-44.14-14.54-62.58-36-7.2-8-13.4-16.9-18.43-26.41-16.09-27.99-17.4-59.31-6.25-79.96 2.84-5.25 6.69-13.99 11.41-16.03-1.76 4.92-7.59 24.89-1.78 31.05C64.33 78.7 66.04 42.44 68.5 31.48c2.44-10.84 10.75-23.66.23-30.34-5.03-3.18-10.13 1.02-16.82 3.7-6.99 2.81-13.8 5.05-20.69 8.01-7.57 3.25-13.07 5.64-20.34 8.64-5.93 2.45-19.74 5.99-2.54 17.66v.01l-.01-.01z" fill="var(--icon-secondary)"/>
</svg>