<svg xmlns="http://www.w3.org/2000/svg" xml:space="preserve" width="102.831" height="102.831" style="shape-rendering:geometricPrecision;text-rendering:geometricPrecision;image-rendering:optimizeQuality;fill-rule:evenodd;clip-rule:evenodd" viewBox="0 0 15576.96 15576.96"><path d="M-.02-.02h15576.95v15576.95H-.02z" style="fill:none"/><path d="M2675.06 6187.33c-159.22 507.54-245.5 1047.66-245.5 1607.65 0 2957.95 2401.22 5358.54 5358.54 5358.54 2957.95 0 5358.54-2400.59 5358.54-5358.54 0-2957.32-2400.59-5358.48-5358.54-5358.48-1136.58 0-2187.9 357.83-3055.96 962.41l912.6 1180.95H2118.91l1036.96-3221.65 920.68 1191.25c1049.32-744.28 2328.91-1184.78 3711.96-1184.78 3548.91 0 6430.31 2881.4 6430.31 6430.31 0 3548.91-2881.4 6423.84-6430.31 6423.84-3548.91 0-6430.31-2874.93-6430.31-6423.84 0-555.12 70.71-1093.64 203.13-1607.65h1113.73z" style="fill:#fa6831"/><path d="M11648.18 7788.51c0 3416.02-4160.82 5144.59-6588.44 2722.7-2427.96-2422.18-695.22-6573.55 2728.77-6573.55 2128.59 0 3859.67 1722.95 3859.67 3850.86zm-6734.49 0c0 2536.51 3093.75 3835.28 4906.71 2026.74 1812.21-1807.86 511.15-4894.62-2031.89-4894.62-1583.32 0-2874.82 1284.74-2874.82 2867.89z" style="fill:#2b2a29;fill-rule:nonzero"/><path d="M8710.56 7800.13c0-508.86-415.25-924.05-924.11-924.05-510.86 0-924.05 415.19-924.05 924.05 0 508.86 415.25 924.05 924.05 924.05 508.86 0 924.11-415.19 924.11-924.05z" style="fill:#2b2a29"/></svg>