<svg xmlns="http://www.w3.org/2000/svg" fill-rule="evenodd" clip-rule="evenodd" image-rendering="optimizeQuality" shape-rendering="geometricPrecision" text-rendering="geometricPrecision" viewBox="0 0 24 24">
  <path fill="#FA6831" d="M16.17 13.66c0 .4618.3763.8287.8287.8287.4618 0 .8287-.3763.8287-.8287 0-.4618-.3763-.8287-.8287-.8287-.4618 0-.8287.3763-.8287.8287zM4.503518 16.17558l1.669078-.007604v1.669078h1.670979v-1.669078h1.661474v-1.661474H7.843575v-1.669078H6.172596v1.669078H4.503518z"/>
  <g fill="#585858">
    <path d="M19.51 15.33c0-.4618-.3763-.8306-.8306-.8306-.4618 0-.8287.3763-.8287.8306 0 .4618.3763.8287.8287.8287.4618 0 .8306-.3763.8306-.8287zM17.84 17c0-.4618-.3763-.8287-.8287-.8287-.4618 0-.8287.3763-.8287.8287 0 .4618.3763.8287.8287.8287.4618 0 .8287-.3763.8287-.8287zm-1.67-1.67c0-.4618-.3763-.8306-.8306-.8306-.4618 0-.8287.3763-.8287.8306 0 .4618.3763.8287.8287.8287.4618 0 .8306-.3763.8306-.8287z"/>
    <path d="M6.858 10.34l10.47.0076c2.602.09503 4.674 2.296 4.674 4.991 0 2.758-2.172 5-4.852 5-1.258 0-2.406-.498-3.269-1.302-.5322-.498-1.19-.7374-1.849-.7374-.7013 0-1.395.2642-1.942.7621-.8572.7868-1.996 1.275-3.235 1.275-2.68 0-4.852-2.243-4.852-5 0-2.758 2.172-5 4.852-5h.0095l-.0019.0019zm0 1.669c-1.756 0-3.184 1.498-3.184 3.33 0 1.842 1.429 3.33 3.184 3.33.7697 0 1.524-.2927 2.106-.8325.8477-.7792 1.935-1.207 3.073-1.207 1.112 0 2.174.42 2.988 1.19.5911.5474 1.344.8572 2.131.8572 1.756 0 3.184-1.498 3.184-3.33 0-1.788-1.336-3.252-3.047-3.33H6.863v-.0076h.0019zm.146-8.342l.9769.1711c-.3003 1.876.6595 2.098 2.25 2.397 1.224.2319 2.61.5227 2.61 2.739v.5303h-.9845v-.5303c0-1.302-.4029-1.507-1.806-1.771-2.157-.4029-3.415-1.156-3.047-3.537z"/>
  </g>
</svg>