<?xml version="1.0" encoding="UTF-8" standalone="no"?>
<!DOCTYPE svg PUBLIC "-//W3C//DTD SVG 1.1//EN" "http://www.w3.org/Graphics/SVG/1.1/DTD/svg11.dtd">
<svg width="100%" height="100%" viewBox="0 0 512 512" version="1.1" xmlns="http://www.w3.org/2000/svg" xmlns:xlink="http://www.w3.org/1999/xlink" xml:space="preserve" xmlns:serif="http://www.serif.com/" style="fill-rule:evenodd;clip-rule:evenodd;stroke-linejoin:round;stroke-miterlimit:2;">
    <g id="_1" transform="matrix(1.28056,0,0,1.28056,-69.3168,-48.3832)">
        <path fill="var(--icon-secondary)" d="M242.28,427.39C237.837,427.391 233.42,426.716 229.18,425.39C210.96,419.7 199.31,403.75 199.49,384.77C199.65,367.42 196.34,352.27 189.66,339.77C181.47,324.44 167.83,312.64 149.11,304.69C143.56,302.341 139.936,296.872 139.936,290.845C139.936,282.598 146.723,275.811 154.97,275.811C156.983,275.811 158.976,276.215 160.83,277C206.23,296.26 229.97,333.6 229.48,385C229.511,391.715 235.045,397.224 241.76,397.224C245.757,397.224 249.513,395.272 251.81,392C280.15,350.29 255.28,304.37 255.03,303.91C253.797,301.685 253.15,299.183 253.15,296.64C253.15,288.411 259.921,281.64 268.15,281.64L409.79,281.64C417.446,281.437 423.633,275.084 423.633,267.425C423.633,259.766 417.446,253.413 409.79,253.21L389.34,253.21C381.111,253.21 374.34,246.439 374.34,238.21C374.34,229.981 381.111,223.21 389.34,223.21C389.343,223.21 389.347,223.21 389.35,223.21C397.14,223.21 403.55,216.8 403.55,209.01C403.55,209.007 403.55,209.003 403.55,209C403.539,201.209 397.131,194.801 389.34,194.79L368.9,194.79C360.671,194.79 353.9,188.019 353.9,179.79C353.9,171.561 360.671,164.79 368.9,164.79C376.695,164.79 383.11,158.375 383.11,150.58C383.11,142.785 376.695,136.37 368.9,136.37L348.45,136.37C340.221,136.37 333.45,129.599 333.45,121.37C333.45,113.141 340.221,106.37 348.45,106.37C356.245,106.37 362.66,99.955 362.66,92.16C362.66,84.365 356.245,77.95 348.45,77.95L261.8,77.95C248.463,77.932 235.231,80.303 222.73,84.95L155.23,110.02C153.894,110.401 152.511,110.594 151.121,110.594C142.892,110.594 136.121,103.822 136.121,95.594C136.121,89.775 139.507,84.46 144.78,82L212.28,56.93C228.12,51.019 244.893,47.994 261.8,48L348.45,48C372.694,48.044 392.619,68.006 392.619,92.25C392.619,98.73 391.196,105.131 388.45,111C409.879,121.614 419.033,147.77 408.9,169.43C430.32,180.047 439.468,206.195 429.34,227.85C444.39,235.292 453.954,250.69 453.954,267.48C453.954,291.731 434.001,311.687 409.75,311.69L290.11,311.69C296.88,334.8 301.34,372.54 276.63,408.91C269.012,420.431 256.092,427.382 242.28,427.39Z" style="fill-rule:nonzero;"/>
        <path fill="var(--icon-secondary)" d="M155,305.85L69.13,305.85C60.901,305.85 54.13,299.079 54.13,290.85L54.13,85.21C54.13,76.981 60.901,70.21 69.13,70.21L155,70.21C163.229,70.21 170,76.981 170,85.21L170,290.85C170,299.079 163.229,305.85 155,305.85ZM84.16,275.85L140,275.85L140,100.21L84.13,100.21L84.16,275.85Z" style="fill-rule:nonzero;"/>
    </g>
</svg>
