
<svg xmlns="http://www.w3.org/2000/svg" fill-rule="evenodd" clip-rule="evenodd" image-rendering="optimizeQuality" shape-rendering="geometricPrecision" text-rendering="geometricPrecision" viewBox="0 0 24 24">
  <path fill="#fa6831" d="M8.667 12h2.5V8.667l1.667-.0005v3.333l2.5.0005-3.333 3.333z"/>
  <path fill="#fa6831" d="M12 4.5c-3.338 0-6.056 2.618-6.232 5.91C3.626 10.7958 2 12.665 2 14.917 2 17.448 4.052 19.5 6.583 19.5l10.83.0005c2.531 0 4.583-2.052 4.583-4.583 0-2.252-1.626-4.121-3.768-4.507-.1768-3.292-2.894-5.91-6.232-5.91zm0 1.667c2.878 0 4.909 2.331 4.639 5.65 1.454-.0385 3.694.6258 3.694 3.1 0 1.608-1.308 2.916-2.916 2.916H6.587c-1.608 0-2.916-1.308-2.916-2.916 0-2.331 2.066-3.194 3.694-3.1-.1392-3.515 1.84-5.65 4.639-5.65z"/></svg>