<svg xmlns="http://www.w3.org/2000/svg" fill-rule="evenodd" clip-rule="evenodd" image-rendering="optimizeQuality" shape-rendering="geometricPrecision" text-rendering="geometricPrecision" viewBox="0 0 24 24">
  <path fill="#fa6831" d="M17.84 2.834c-.789 0-1.578.2227-2.265.6682 2.643 1.015 4.745 3.114 5.761 5.757.4455-.6871.6682-1.476.6682-2.265 0-2.303-1.865-4.164-4.164-4.164zM2.668 9.263c-.4455-.6871-.6682-1.476-.6682-2.265 0-2.299 1.861-4.164 4.16-4.164.789 0 1.582.2227 2.269.6682-2.643 1.015-4.745 3.114-5.757 5.757zM10.94 13.82L9 12l-1.163 1.197 3.122 2.971 5.466-5.493-1.185-1.174z"/>
  <path fill="#585858" d="M20.34 12.83c0-4.602-3.73-8.335-8.335-8.335-4.602 0-8.335 3.733-8.335 8.335 0 3.598 2.575 8.335 8.335 8.335 5.776 0 8.335-4.745 8.335-8.335zm-8.335 6.667c-3.677 0-6.667-2.994-6.667-6.667 0-3.677 2.994-6.667 6.667-6.667 3.677 0 6.667 2.99 6.667 6.667 0 3.677-2.994 6.667-6.667 6.667z"/>
</svg>