<svg clip-rule="evenodd" fill-rule="evenodd" image-rendering="optimizeQuality" shape-rendering="geometricPrecision" text-rendering="geometricPrecision" version="1.1" viewBox="0 0 24 24" xmlns="http://www.w3.org/2000/svg">
  <path d="m19.39 8.087h2.608v0.8697h-2.608zm-10.38 4.268h1.443v-0.5009h-1.443v-1.118h1.545v-0.5106h-2.195v3.55h0.6497zm3.545 1.42 0.6081-2.236c0.09756-0.3526 0.1159-0.5569 0.1159-0.5569h0.0092s0.01837 0.2043 0.1159 0.5613l0.6173 2.232h0.6545l0.9651-3.55h-0.6033l-0.5569 2.199c-0.08837 0.3526-0.1116 0.5801-0.1116 0.5801h-0.0092s-0.03719-0.2275-0.1343-0.5849l-0.6033-2.195h-0.6265l-0.5985 2.199c-0.09756 0.3526-0.1207 0.5801-0.1207 0.5801h-0.0092s-0.01881-0.2275-0.1116-0.5849l-0.5661-2.195h-0.6637l0.9651 3.55h0.6637zm3.359 5.616v2.609l-0.8693-4.38e-4v-2.609zm-6.956 0v2.609l-0.8697-4.38e-4v-2.609zm3.478 0v2.609l-0.8693-4.38e-4v-2.609zm1.739 0v2.609l-0.8697-4.38e-4v-2.609zm-3.479 0v2.609l-0.8697-4.38e-4v-2.609zm-8.695-11.3h2.608v0.8697h-2.608zm0 6.956h2.608v0.8697l-2.608-4.37e-4v-0.8697zm0-3.478h2.608v0.8693h-2.608zm0-1.739h2.608v0.8697h-2.608zm0 3.479h2.608v0.8697h-2.608zm13.91-11.3v2.609l-0.8693-4.37e-4v-2.609zm-6.956 0v2.609l-0.8697-4.37e-4v-2.609zm3.478 0v2.609l-0.8693-4.37e-4v-2.609zm1.739 0v2.609l-0.8697-4.37e-4v-2.609zm-3.479 0v2.609l-0.8697-4.37e-4v-2.609zm8.696 13.04h2.608v0.8697l-2.608-4.38e-4v-0.8697zm0-3.478h2.608v0.8693h-2.608zm0-1.739h2.608v0.8697h-2.608zm0 3.479h2.608v0.8697h-2.608z" fill="var(--icon-secondary)" style="stroke-width:.04375"/>
  <path d="m18.52 7.218c0-0.9599-0.7792-1.739-1.739-1.739h-9.565c-0.9599 0-1.739 0.7792-1.739 1.739v9.565c0 0.9599 0.7792 1.739 1.739 1.739h9.565c0.9599 0 1.739-0.7792 1.739-1.739zm-2.391 0c0.3601 0 0.6523 0.2922 0.6523 0.6523v8.26c0 0.3601-0.2922 0.6519-0.6523 0.6519l-8.261 4.37e-4c-0.3601 0-0.6523-0.2922-0.6523-0.6523v-8.26c0-0.3601 0.2922-0.6519 0.6523-0.6519z" fill="#fa6831" style="stroke-width:.04375"/>
</svg>