<svg xmlns="http://www.w3.org/2000/svg" fill-rule="evenodd" clip-rule="evenodd" image-rendering="optimizeQuality" shape-rendering="geometricPrecision" text-rendering="geometricPrecision" viewBox="0 0 24 24">
  <path fill="#898989" d="M15.99 12.35h4.07V7.89h-4.07c-.17-.43-.38-.84-.64-1.22h-.3v6.9h.3c.26-.38.47-.79.64-1.22z" data-name="Rectangle 76"/>
  <path fill="var(--icon-secondary)" d="m21.92 20.05-5.17-5.18a8.087 8.087 0 0 0 1.55-4.76C18.3 5.64 14.66 2 10.19 2c-4.48 0-8.11 3.64-8.11 8.11s3.63 8.11 8.11 8.11c1.69 0 3.27-.52 4.57-1.41L19.95 22l1.96-1.96zM10.18 3.91c3.44 0 6.22 2.78 6.22 6.21 0 3.44-2.78 6.22-6.22 6.22-3.43 0-6.21-2.78-6.21-6.22a6.21 6.21 0 0 1 6.21-6.21z"/>
  <path fill="#f8651b" d="M6.73 6.67h6.9v6.9h-6.9z" data-name="Rectangle 74"/>
  <path fill="#898989" d="M21.16 7.89h.76v4.46h-.76z"/>
</svg>