<svg xmlns="http://www.w3.org/2000/svg" fill-rule="evenodd" stroke-linejoin="round" stroke-miterlimit="2" clip-rule="evenodd" viewBox="0 0 24 24"><path fill-rule="nonzero" d="M10.5 17.25a.75.75 0 0 1 .75-.75h10a.75.75 0 0 1 0 1.5h-10a.75.75 0 0 1-.75-.75zM9 13.7c0-.53-.47-1-1-1H3c-.53 0-1 .47-1 1V18c0 .53.47 1 1 1h5c.53 0 1-.47 1-1zm-5.5.5h4v3.3h-4zm7-2.2a.75.75 0 0 1 .75-.75h10a.75.75 0 0 1 0 1.5h-10a.75.75 0 0 1-.75-.75zM9 6c0-.53-.47-1-1-1H3c-.53 0-1 .47-1 1v4.3c0 .53.47 1 1 1h5c.53 0 1-.47 1-1zm-5.5.5h4v3.3h-4zm7 .25a.75.75 0 0 1 .75-.75h10a.75.75 0 0 1 0 1.5h-10a.75.75 0 0 1-.75-.75z"/></svg>