<svg xmlns="http://www.w3.org/2000/svg" fill-rule="evenodd" clip-rule="evenodd" image-rendering="optimizeQuality" shape-rendering="geometricPrecision" text-rendering="geometricPrecision" viewBox="0 0 24 24">
  <path d="M20.65 17.68v.6512h-3.907V17.68zm0-1.489v.6974h-3.907v-.6974zm.4187-1.489v.6974h-4.326v-.6974zm-.4187-1.489v.6974h-3.907v-.6974zm.4187-1.442v.6512h-4.326v-.6512zm-.4187-1.489v.6974h-3.907v-.6974zm0-1.489v.6974h-3.907V8.793zm0-1.489v.6974h-3.907V7.304zm-7.07-2.605h-1.721c-.6237 0-.0058 1.024-.976 1.024-1.118 0-.8418.05487-1.385-.4765-.2455-.2397-.3581-.5472-.6627-.5472h-6.047c-.3754 0-.7912.3407-.7912.6974v13.12c0 .4245.3653.7912.7912.7912h18.51c.3278 0 .6974-.3696.6974-.6974v-11.53c0-.3278-.3711-.6165-.6685-.68-.2252-.04765-4.662-.02166-5.378-.01733-.7133.004332-.7984-.2224-1.291-.7104l-.6512-.6974c-.1198-.1227-.2108-.2671-.4303-.2671z"/>
</svg>