<svg xmlns="http://www.w3.org/2000/svg" width="64" height="64" fill-rule="evenodd" clip-rule="evenodd" image-rendering="optimizeQuality" shape-rendering="geometricPrecision" text-rendering="geometricPrecision" viewBox="0 0 4000 4000"><path fill="var(--icon-secondary)" d="M535.7 1932.14c368.02,-392.28 878.94,-633.44 1442.06,-633.44 563.12,0 1072,241.36 1442.06,633.44l357.94 -380.12c-460.54,-488.7 -1096.02,-790.32 -1800,-790.32 -703.98,0 -1339.46,301.62 -1800,790.32l357.94 380.12zm872.96 927.26c144.76,-154.84 346.04,-249.4 567.26,-249.4 221.22,0 422.28,94.56 567.04,249.4l-567.04 603.24 -567.26 -603.24zm-261.5 -277.56c213.2,-225.34 506.8,-364.12 830.6,-364.12 323.8,0 617.4,138.78 830.6,364.12l349.92 -370.06c-301.62,-319.72 -717.94,-518.94 -1178.48,-518.94 -460.52,0 -876.84,197.18 -1178.46,518.94l349.92 370.06 0 0 -4.14 0 0.04 0z"></path><path fill="#fa6831" d="M918.04 3355.12L3403.02 870.12 3124.92 592.02 639.94 3077z"></path></svg>