<?xml version="1.0" encoding="UTF-8"?>
<!DOCTYPE svg PUBLIC "-//W3C//DTD SVG 1.1//EN" "http://www.w3.org/Graphics/SVG/1.1/DTD/svg11.dtd">
<!-- Creator: CorelDRAW 2017 -->
<svg xmlns="http://www.w3.org/2000/svg" xml:space="preserve" width="6.0708mm" height="6.3493mm" version="1.1" style="shape-rendering:geometricPrecision; text-rendering:geometricPrecision; image-rendering:optimizeQuality; fill-rule:evenodd; clip-rule:evenodd"
viewBox="0 0 59.14 61.86"
 xmlns:xlink="http://www.w3.org/1999/xlink">
 <defs>
  <style type="text/css">
   <![CDATA[
    .fil0 {fill:#2B2A29}
   ]]>
  </style>
 </defs>
 <g id="Layer_x0020_1">
  <metadata id="CorelCorpID_0Corel-Layer"/>
  <path id="notification.svg" class="fil0" d="M20.69 52.99c0.1,4.82 3.97,8.72 8.79,8.87 4.85,-0.13 8.77,-4.02 8.95,-8.87l-17.74 0zm38.45 -5.9l0 0 -28.69 0 0 -0 28.69 0zm-30.45 0l-28.69 0 0 -5.18c14.42,-4.7 6.27,-31.74 20.29,-39.36 2.55,-1.52 5.44,-2.39 8.4,-2.54l0 5.92c-1.91,0.14 -3.77,0.72 -5.43,1.7 -4.38,2.55 -5.63,9.21 -6.96,16.31 -1.06,5.67 -2.28,12.27 -5.82,17.21l18.2 -0 0 5.93z"/>
  <path class="fil0" d="M30.45 47.09l3.89 -0c2.64,-7.51 1.55,-6.8 8.51,-3.5l6.76 -6.76c-3.33,-6.96 -3.98,-5.93 3.5,-8.51l0 -9.55c-7.32,-2.57 -6.9,-1.5 -3.5,-8.51l-6.76 -6.76c-6.94,3.3 -5.91,4.03 -8.51,-3.5l-3.89 0 0 5.84c1.93,5.3 5.91,7.06 11.27,4.48l1.11 1.11c-2.56,5.31 -0.87,9.41 4.7,11.35l0 1.55c-5.58,1.93 -7.26,6.04 -4.7,11.35l-1.11 1.11c-5.35,-2.6 -9.35,-0.81 -11.27,4.49l0 5.82z"/>
  <path class="fil0" d="M30.45 28.23c2.17,-0.45 3.8,-2.37 3.8,-4.68 0,-2.3 -1.63,-4.23 -3.8,-4.68l0 9.35z"/>
 </g>
</svg>
