<svg width="100%" height="100%" viewBox="0 0 20 21" version="1.1" xmlns="http://www.w3.org/2000/svg" xmlns:xlink="http://www.w3.org/1999/xlink" xml:space="preserve" xmlns:serif="http://www.serif.com/" style="fill-rule:evenodd;clip-rule:evenodd;stroke-linejoin:round;stroke-miterlimit:2;">
    <path d="M13.003,17.921C13.003,19.519 11.612,20.92 10.031,20.92C8.451,20.92 7.006,19.519 7.006,17.921L13.003,17.921ZM6.862,0.871C2.103,3.421 4.878,12.588 0.002,14.177L0.002,15.928L19.998,15.928L19.998,14.177C15.122,12.588 17.879,3.448 13.138,0.871C11.037,-0.269 9.026,-0.296 6.862,0.871ZM3.549,13.926C4.734,12.256 5.156,10.038 5.515,8.108C5.964,5.719 6.386,3.457 7.868,2.595C9.25,1.796 10.822,1.832 12.132,2.595C13.614,3.457 14.036,5.71 14.485,8.108C14.844,10.029 15.257,12.256 16.451,13.926L3.549,13.926Z" style="fill:var(--color-text);"/>
</svg>