<svg version="1.1" height="24" width="24" viewBox="0 0 24 24" xmlns="http://www.w3.org/2000/svg">
  <path d="m13.235 11.852c0 4.3383 0.66468 3.6167-6.8219 3.6167v0.76243h12.411c0.69273 0 1.2546 0.56184 1.2546 1.2571v3.2571c0 0.69273-0.56184 1.2546-1.2571 1.2546h-13.642c-1.6175-0.01785-1.6167-2.4964 0-2.5142h12.408v-0.76328h-12.411c-0.69273 0-1.2546-0.56184-1.2546-1.2571v-3.2554c0-0.69273 0.56184-1.2546 1.2571-1.2546h5.5648v-1.1024h2.4921z" fill="#fa6831" image-rendering="optimizeQuality"/>
  <path d="m17.655 2v4.6239l-4.0162 5.2282h-3.3217l-4.0161-5.2282v-4.6239h2.5134v3.7705l2.7148 3.5674h0.87718l2.7386-3.5674v-3.7705z" fill="white" image-rendering="optimizeQuality"/>
</svg>
