<svg xmlns="http://www.w3.org/2000/svg" fill-rule="evenodd" clip-rule="evenodd" image-rendering="optimizeQuality" shape-rendering="geometricPrecision" text-rendering="geometricPrecision" viewBox="0 0 24 24">
  <path fill="var(--icon-secondary)" d="m21.92 20.05-5.17-5.18a8.087 8.087 0 0 0 1.55-4.76C18.3 5.64 14.66 2 10.19 2c-4.48 0-8.11 3.64-8.11 8.11 0 4.47 3.63 8.11 8.11 8.11 1.69 0 3.27-.52 4.57-1.41L19.95 22l1.96-1.96.01.01zM10.18 3.91c3.44 0 6.22 2.78 6.22 6.21 0 3.44-2.78 6.22-6.22 6.22-3.43 0-6.21-2.78-6.21-6.22a6.21 6.21 0 0 1 6.21-6.21z"/>
  <path fill="#fa6831" d="M5.57 10.84a.666.666 0 0 1 0-1.33h1.47c.25 0 .48.14.59.36l.3.49 1.29-3.6c.12-.35.5-.53.85-.41.19.07.33.23.4.41l1.64 4.58.51-1.39c.1-.27.36-.43.63-.43h1.57a.666.666 0 0 1 0 1.33h-1.11l-.98 2.63c-.06.2-.21.35-.41.43a.665.665 0 0 1-.85-.41L9.83 8.94l-1.12 3.13c-.05.16-.15.3-.3.39-.32.2-.72.09-.91-.23l-.84-1.38h-1.1l.01-.01z"/>
</svg>