<svg xmlns="http://www.w3.org/2000/svg" fill-rule="evenodd" clip-rule="evenodd" image-rendering="optimizeQuality" shape-rendering="geometricPrecision" text-rendering="geometricPrecision" viewBox="0 0 24 24">
  <path fill="#fa6831" d="M12 3.667c4.595 0 8.333 3.738 8.333 8.333 0 4.595-3.738 8.333-8.333 8.333-4.595 0-8.333-3.738-8.333-8.333 0-4.595 3.738-8.333 8.333-8.333zM12 2C6.479 2 2 6.475 2 12c0 5.521 4.475 10 10 10 5.521 0 10-4.475 10-10 0-5.521-4.475-10-10-10zm1.042 14.17c0 .5744-.4672 1.042-1.042 1.042s-1.042-.4672-1.042-1.042c0-.5744.4672-1.042 1.042-1.042s1.042.4672 1.042 1.042zm1.162-8.333c-.5058-.5144-1.26-.7973-2.126-.7973-1.817 0-2.992 1.29-2.992 3.292h1.676c0-1.239.6901-1.676 1.282-1.676.5272 0 1.089.3515 1.136 1.02.05144.7072-.3258 1.063-.8015 1.517-1.174 1.119-1.2 1.659-1.192 2.889h1.672c-.0086-.5529.02572-1.003.7801-1.813.5658-.6087 1.264-1.363 1.282-2.516.0086-.7715-.2357-1.432-.7115-1.912z"/>
</svg>