<svg version="1.1" height="24" width="24" viewBox="0 0 24 24" xmlns="http://www.w3.org/2000/svg">
    <g clip-rule="evenodd" fill-rule="evenodd" image-rendering="optimizeQuality" shape-rendering="geometricPrecision">
        <g>
            <path fill="#313131" d="m21.999740600585938,14.500064849853516c0,1.8202095031738281,-0.4881267547607422,3.5277767181396484,-1.3418102264404297,4.999156951904297l-1.4466743469238281,-0.8359813690185547c0.7093296051025391,-1.225860595703125,1.1215801239013672,-2.645101547241211,1.1215801239013672,-4.163564682006836c0,-4.602469444274902,-3.7306900024414062,-8.333160400390625,-8.333354949951172,-8.333160400390625c-4.602469444274902,0,-8.333160400390625,3.7306909561157227,-8.333160400390625,8.333160400390625c0,1.518463134765625,0.4126405715942383,2.937704086303711,1.1215810775756836,4.163564682006836l-1.446674108505249,0.8359813690185547c-0.8532962799072266,-1.471771240234375,-1.3418114185333252,-3.1793365478515625,-1.3418114185333252,-4.999156951904297c0,-5.5139360427856445,4.486128807067871,-10.000064849853516,10.000064849853516,-10.000064849853516c5.514129638671875,0,10.000259399414062,4.486128807067871,10.000259399414062,10.000064849853516Z"></path>
            <path fill="#fa6831" d="m12.000064849853516,19.500194549560547c-1.0783910751342773,0,-1.9523096084594727,-0.8739185333251953,-1.9523096084594727,-1.9523086547851562c0,-0.7357883453369141,0.40758228302001953,-1.3766365051269531,1.0081586837768555,-1.7093172073364258l0.9441509246826172,-4.671923637390137l0.9443454742431641,4.6707563400268555c0.6015481948852539,0.33268070220947266,1.0081586837768555,0.9733343124389648,1.0081586837768555,1.7093172073364258c0,1.0791683197021484,-0.8739185333251953,1.9534759521484375,-1.9525041580200195,1.9534759521484375Z"></path>
        </g>
        <g fill="#fa6831">
            <path d="m12.540136337280273,7.551906108856201c-0.18229389190673828,-0.015175342559814453,-0.36400413513183594,-0.021595478057861328,-0.5408506393432617,-0.021595478057861328c-0.1766500473022461,0,-0.35913848876953125,0.007587432861328125,-0.5416259765625,0.021595478057861328l0,2.3200087547302246c0.18015384674072266,-0.02062225341796875,0.36166858673095703,-0.031711578369140625,0.5416259765625,-0.031711578369140625c0.18015384674072266,0,0.36166954040527344,0.009922027587890625,0.5408506393432617,0.031711578369140625Z"></path>
            <path d="m17.36614418029785,10.101094245910645c-0.2350177764892578,-0.28520965576171875,-0.49162864685058594,-0.5525217056274414,-0.7649707794189453,-0.797459602355957l-1.575272560119629,1.6410293579101562c0.2824869155883789,0.235015869140625,0.5392932891845703,0.503300666809082,0.7649707794189453,0.797459602355957Z"></path>
            <path d="m15.198660850524902,8.326214790344238c-0.32256221771240234,-0.17061996459960938,-0.658355712890625,-0.3157539367675781,-0.9999856948852539,-0.43229007720947266l-0.853297233581543,2.1443309783935547c0.34746742248535156,0.104278564453125,0.6834545135498047,0.24921798706054688,0.9999876022338867,0.43229007720947266Z"></path>
            <path d="m7.336701393127441,13.492878913879395c0.10077667236328125,-0.36244678497314453,0.23988008499145508,-0.711857795715332,0.41516923904418945,-1.0416202545166016l-2.0577549934387207,-0.8881206512451172c-0.16400575637817383,0.3355989456176758,-0.30330371856689453,0.6850109100341797,-0.41516971588134766,1.0414257049560547l2.057755470275879,0.8881216049194336Z"></path>
            <path d="m9.635892868041992,10.479299545288086c0.3159494400024414,-0.18423843383789062,0.6507701873779297,-0.3301506042480469,0.9984312057495117,-0.4359865188598633l-0.8616619110107422,-2.1408281326293945c-0.3416299819946289,0.1182870864868164,-0.6764507293701172,0.2647829055786133,-0.9984302520751953,0.4365701675415039Z"></path>
            <path d="m8.2067289352417,11.741929054260254c0.22587299346923828,-0.2951316833496094,0.4834566116333008,-0.5626382827758789,0.7661380767822266,-0.797459602355957l-1.5752716064453125,-1.6410303115844727c-0.2733426094055176,0.2451333999633789,-0.5307321548461914,0.5124454498291016,-0.7649707794189453,0.7974615097045898Z"></path>
            <path d="m18.68441390991211,12.494449615478516c-0.1175079345703125,-0.3558320999145508,-0.2616691589355469,-0.7032995223999023,-0.42995643615722656,-1.0350065231323242l-2.0451087951660156,0.9215831756591797c0.18073654174804688,0.32820606231689453,0.32509422302246094,0.6748943328857422,0.43092918395996094,1.0350065231323242Z"></path>
        </g>
    </g>
</svg>
