<svg xmlns="http://www.w3.org/2000/svg" fill-rule="evenodd" clip-rule="evenodd" image-rendering="optimizeQuality" shape-rendering="geometricPrecision" text-rendering="geometricPrecision" viewBox="0 0 24 24">
  <path fill="#2B2A29" d="M12 2.001c-5.523 0-10 4.477-10 10 0 1.853.504 3.587 1.383 5.075V11.98C3.39422 7.23 7.248 3.383 12 3.383c7.653 0 11.51 9.296 6.094 14.71-4.11 4.11-10.45 2.879-13.27-1.3v2.164c1.817 1.875 4.363 3.041 7.181 3.041 5.523 0 10-4.477 10-10s-4.477-10-10-10zm2.647 7.353c-2.351-2.352-6.389-.6783-6.389 2.647 0 3.324 4.038 4.998 6.389 2.647 1.461-1.462 1.462-3.832 0-5.293zM12 9.3074c-1.487 0-2.693 1.206-2.693 2.692s1.206 2.692 2.693 2.692 2.693-1.206 2.693-2.692-1.206-2.692-2.693-2.692z"/>
  <path fill="#fa6831" d="M12 3.383c7.653 0 11.51 9.296 6.094 14.71-4.11 4.11-10.45 2.879-13.27-1.3v4.437c0 .397-.3219.718-.718.718-.397 0-.718-.3219-.718-.718v-9.252c.01122-4.75 3.865-8.597 8.617-8.597zm2.647 5.971c-2.351-2.352-6.389-.6783-6.389 2.647 0 3.324 4.038 4.998 6.389 2.647 1.461-1.462 1.462-3.832 0-5.293z"/>
</svg>