<svg clip-rule="evenodd" fill-rule="evenodd" image-rendering="optimizeQuality" shape-rendering="geometricPrecision" text-rendering="geometricPrecision" version="1.1" viewBox="0 0 24 24" xmlns="http://www.w3.org/2000/svg">
  <path d="m12.05 4.14c1.767 1.581 2.512 3.256 2.419 5.488 0 2.14-0.6512 4.837-1.488 7.907l-0.09302 0.2791h-1.767c-0.8372-3.163-1.581-5.86-1.581-8.186 0-2.233 0.7442-3.907 2.512-5.488zm0-2.14c-2.977 2.14-4.186 4.558-4.186 7.628 0 2.791 0.9302 6.047 1.953 9.86h4.372c1.023-3.907 1.953-7.163 1.953-9.86 0.09302-3.07-1.209-5.488-4.093-7.628zm7.163 17.3-2.233-4c-0.186 0.5581-0.2791 1.209-0.4651 1.767l1.488 2.698-1.86-1.209-0.2791 1.302 3.349 2.14c0.09302-0.4651 0.2791-1.023 0.2791-1.488 0-0.4651-0.09302-0.8372-0.2791-1.209zm-14.7 1.209c0 0.4651 0.186 1.023 0.3721 1.488l3.349-2.14-0.3721-1.302-1.86 1.209 1.488-2.698c-0.186-0.5581-0.2791-1.209-0.4651-1.767l-2.14 4c-0.186 0.3721-0.3721 0.7442-0.3721 1.209zm8.651 1.488h-2.326l-0.4651-1.674h3.256zm0.4651-13.21c-1.023 0.09302-2.14 0.09302-3.256 0a4 4 0 0 0 0 1.488c0.4651 0.09302 1.023 0.09302 1.674 0.09302 0.5581 0 1.116 0 1.581-0.09302 0.09302-0.3721 0.186-1.116 0-1.488z"/>
</svg>
