<svg version="1.1" viewBox="0 0 24 24" xmlns="http://www.w3.org/2000/svg">
  <path fill="black" d="m12 4.499c4.594 0 8.333 2.992 8.333 6.673 0 4.096-4.285 6.633-8.257 6.633-1.614 0-2.819-0.3308-3.663-0.5371-0.8345 0.5098-1.329 0.8648-3.559 1.517 0.4461-1.144 0.6008-2.291 0.5007-3.553-0.6979-0.8345-1.687-2-1.687-4.06 0-3.678 3.738-6.673 8.333-6.673zm2.834 6.891 1.83-3.644-2.464 0.5644-0.176-0.7647 3.468-0.795 0.1517 0.6554-1.748 3.626 2.47-0.5674 0.176 0.7647-3.556 0.8163-0.1517-0.6585zm-4.797 1.253 2.883-2.886-2.516-0.2367 0.07283-0.7799 3.541 0.3338-0.06372 0.6706-2.798 2.895 2.522 0.2367-0.07283 0.7799-3.632-0.3429zm-3.653 2.136 2.376-3.314-2.522 0.173-0.05462-0.7829 3.55-0.2458 0.04552 0.6736-2.294 3.311 2.528-0.173 0.05462 0.7829-3.641 0.2519-0.04552-0.6736zm5.617-11.95c-5.28 0-9.998 3.52-9.998 8.339 0 1.708 0.616 3.386 1.705 4.688 0.04552 1.526-0.8527 3.714-1.66 5.307 2.167-0.3914 5.25-1.256 6.648-2.112 1.18 0.2883 2.312 0.4188 3.383 0.4188 5.902 0 9.923-4.03 9.923-8.299 0-4.843-4.752-8.339-9.998-8.339z" stroke-width=".3034"/>
</svg>
