<svg clip-rule="evenodd" fill-rule="evenodd" image-rendering="optimizeQuality" shape-rendering="geometricPrecision" text-rendering="geometricPrecision" version="1.1" viewBox="0 0 24 24" xmlns="http://www.w3.org/2000/svg">
  <path d="m13.9 22c-2.388 0-4.537-1.194-5.612-3.104-1.373-2.328-3.045-4.418-4.299-6.448a1.654 1.654 0 0 1 0.0597-1.493 1.194 1.194 0 0 1 1.075-0.597c0.6567 0 1.433 0.2388 1.97 0.597 0.4179 0.2985 0.8955 0.7164 1.373 1.313v-6.269c0-0.9552 0.8358-1.791 1.851-1.791 0.3582 0 0.7761 0.1791 1.075 0.3582v-0.7761c-5e-7 -1.015 0.7761-1.791 1.791-1.791 0.9552 0 1.791 0.7761 1.791 1.791v0.0597c0.2985-0.1791 0.597-0.2985 0.9552-0.2985 0.8955 0 1.612 0.7761 1.612 1.672v1.075c0.2985-0.1791 0.597-0.2985 0.9552-0.2985 0.8955 0 1.672 0.7164 1.672 1.612v8.776c-0.3582 4.955-3.522 5.612-6.269 5.612zm-9.015-10.09c1.194 2.03 2.925 4.179 4.299 6.448 0.8955 1.612 2.687 2.627 4.716 2.627 2.507 0 4.896-0.597 5.194-4.657v-8.716c0-0.3582-0.2388-0.597-0.597-0.597s-0.6567 0.2388-0.6567 0.597v4.06c0 0.3582-0.2985 0.6567-0.6567 0.6567s-0.6567-0.2985-0.6567-0.6567v-6.448c0-0.3582-0.2985-0.6567-0.597-0.6567-0.3582 0-0.6567 0.2985-0.6567 0.6567v5.791c0 0.3582-0.2985 0.6567-0.6567 0.6567s-0.6567-0.2985-0.6567-0.6567v-7.284c0-0.4179-0.3582-0.7761-0.7761-0.7761-0.4776 0-0.7761 0.3582-0.7761 0.7761v7.284c0 0.3582-0.3582 0.6567-0.7164 0.6567-0.3582 0-0.6567-0.2985-0.6567-0.6567v-5.015c0-0.4179-0.3582-0.7761-0.7761-0.7761-0.4179 0-0.7164 0.3582-0.7164 0.7761v8.239l-0.597-0.1194a1.075 1.075 0 0 1-0.8358-0.597 5.713 5.713 0 0 0-1.552-1.731 2.543 2.543 0 0 0-1.373-0.4776c-0.1791 0-0.1791 0.0597-0.2388 0.1194-0.1194 0.1791-0.0597 0.4179-0.0597 0.4776z" fill="#2b2a29" stroke-width="5.97"/>
</svg>
