<svg version="1.1" viewBox="0 0 24 24" xmlns="http://www.w3.org/2000/svg">
  <path fill="black" d="m8.599 16.48-4.058-11.15h-1.708c-0.2217 0-0.4333-0.0875-0.5892-0.2442-0.1567-0.1558-0.2442-0.3683-0.2442-0.5892 0-0.46 0.3725-0.8333 0.8333-0.8333h2.875l4.557 12.52c0.7008 0.08417 1.325 0.4167 1.782 0.9067l9.382-3.414 0.57 1.566-9.208 3.351c0.02667 0.1583 0.04083 0.3208 0.04083 0.4867 0 1.61-1.308 2.917-2.917 2.917-1.61 0-2.917-1.307-2.917-2.917 0-1.136 0.6508-2.121 1.599-2.602zm1.318 1.509c0.6033 0 1.093 0.49 1.093 1.093 0 0.6033-0.49 1.094-1.093 1.094-0.6042 0-1.094-0.4908-1.094-1.094 0-0.6033 0.49-1.093 1.094-1.093zm11.1-5.427-9.515 3.463-2.28-6.265 9.515-3.463zm-7.258-2.679-2.4 0.8733 1.14 3.132 6.382-2.322-1.14-3.133-2.417 0.8792 0.57 1.566-1.566 0.5708zm2.227-3.471-7.048 2.565-1.606-4.413 7.047-2.565zm-2.602-2.278-3.916 1.426 0.4667 1.281 3.915-1.425z"/>
</svg>
