<svg version="1.1" viewBox="0 0 24 24" xmlns="http://www.w3.org/2000/svg">
  <path fill="black" d="m17.41 7.935c0.7944-0.9579 1.238-2.15 1.238-3.364v-2.57h-13.32v2.57c0 1.215 0.4439 2.407 1.238 3.364l2.57 3.061c0.4673 0.5607 0.479 1.355 0.01168 1.928l-2.605 3.154c-0.7827 0.9463-1.203 2.126-1.203 3.329v2.593h13.32v-2.593c0-1.203-0.4322-2.383-1.203-3.329l-2.605-3.154c-0.4673-0.5724-0.4673-1.355 0.01168-1.928l2.57-3.061zm-3.867 6.04 2.605 3.154c0.5374 0.6542 0.8294 2.068 0.8294 2.991h-9.988c0-0.9229 0.2921-2.325 0.8294-2.979l2.605-3.154c0.9696-1.18 0.9696-2.886-0.01168-4.054l-2.57-3.061c-0.5491-0.6542-0.8528-2.079-0.8528-2.991h9.988c0 0.9229-0.3037 2.336-0.8528 2.991l-2.57 3.061c-0.9813 1.168-0.993 2.874-0.01168 4.054z"/>
  <path fill="black" d="m9.278 10.32 5.456-0.01168-1.157 1.379c-0.479 0.5841-0.736 1.297-0.736 2.009h-1.682c-0.01168-0.7126-0.257-1.425-0.736-2.009l-1.145-1.367h-0.01168z"/>
</svg>
