<svg version="1.1" viewBox="0 0 24 24" xmlns="http://www.w3.org/2000/svg">
  <path fill="var(--icon-secondary)" d="m12 3.667c4.595 0 8.333 3.738 8.333 8.333 0 4.595-3.738 8.333-8.333 8.333-4.595 0-8.333-3.738-8.333-8.333 0-4.595 3.738-8.333 8.333-8.333zm0-1.667c-5.521 0-10 4.475-10 10 0 5.521 4.475 10 10 10 5.521 0 10-4.475 10-10 0-5.521-4.475-10-10-10zm1.042 14.17c0 0.5744-0.4672 1.042-1.042 1.042s-1.042-0.4672-1.042-1.042c0-0.5744 0.4672-1.042 1.042-1.042s1.042 0.4672 1.042 1.042zm1.162-8.333c-0.5058-0.5144-1.26-0.7973-2.126-0.7973-1.817 0-2.992 1.29-2.992 3.292h1.676c0-1.239 0.6901-1.676 1.282-1.676 0.5272 0 1.089 0.3515 1.136 1.02 0.05144 0.7072-0.3258 1.063-0.8015 1.517-1.174 1.119-1.2 1.659-1.192 2.889h1.672c-0.0086-0.5529 0.02572-1.003 0.7801-1.813 0.5658-0.6087 1.264-1.363 1.282-2.516 0.0086-0.7715-0.2357-1.432-0.7115-1.912z" stroke-width=".4286"/>
</svg>
