<svg version="1.1" viewBox="0 0 24 24" xmlns="http://www.w3.org/2000/svg">
  <path fill="black" d="m19.82 9.955c-1.007-0.04245-2.389-0.2314-3.31-0.6192 0.6733-2.732 1.043-7.336-1.828-7.336-1.549 0-1.957 1.388-2.358 2.771-1.288 4.441-3.284 5.673-5.326 6.16v-0.6076h-4.994v9.987h4.994v-0.7524c1.979 0.1898 3.428 0.7191 5.134 1.453 1.046 0.4503 2.541 0.9638 4.441 0.9638 2.112 0 3.575-0.8298 4.169-3.068 0.4161-1.562 1.237-6.034 1.237-6.866 0-1.372-0.9721-2.036-2.159-2.086zm-14.49 8.69h-1.665v-6.658h1.665zm13.23-4.647s0.1673 0.0084 0.8897-0.02247c0.9005-0.03829 0.8747 1.223 0.0034 1.301l-1.466 0.08239c-0.6109 0.07824-0.546 1.001 0.1173 0.9754 0 0 0.5709-0.01414 0.9513-0.03412 0.8889-0.0466 0.8456 1.189 0.03329 1.291-0.3529 0.04411-1.452 0.09571-1.452 0.09571-0.675 0.05992-0.5876 1.028 0.09072 0.9496l0.6417-0.0258c0.6841-0.06158 0.8348 0.6866-0.243 1.382-1.304 0.7332-3.899 0.109-5.34-0.511-1.863-0.8031-3.694-1.61-5.792-1.67v-4.994c2.717-0.6234 5.267-1.876 6.925-7.584 0.7474-2.573 1.397-1.607 1.397 0.4777 0 1.724-0.4078 3.151-0.7665 4.605 0.883 0.4519 2.806 1.167 5.093 1.295 0.878 0.0491 0.8522 1.211-0.04245 1.318l-1.16 0.139s-0.506 0.9246 0.1182 0.9288z" stroke-width=".8323"/>
</svg>
