<?xml version="1.0" encoding="UTF-8" standalone="no"?>
<!DOCTYPE svg PUBLIC "-//W3C//DTD SVG 1.1//EN" "http://www.w3.org/Graphics/SVG/1.1/DTD/svg11.dtd">
<svg width="100%" height="100%" viewBox="0 0 460 282" version="1.1" xmlns="http://www.w3.org/2000/svg" xmlns:xlink="http://www.w3.org/1999/xlink" xml:space="preserve" xmlns:serif="http://www.serif.com/" style="fill-rule:evenodd;clip-rule:evenodd;stroke-linejoin:round;stroke-miterlimit:2;">
    <g id="Artboard1" transform="matrix(1,0,0,1,-26,-115.49)">
        <rect x="26" y="115.49" width="459.999" height="281.019" style="fill:none;"/>
        <clipPath id="_clip1">
            <rect x="26" y="115.49" width="459.999" height="281.019"/>
        </clipPath>
        <g clip-path="url(#_clip1)">
            <g id="_x33_52-usb" transform="matrix(1,0,0,1,1,0.49)">
                <g>
                    <path d="M485.999,255.964C485.999,258.187 484.779,260.339 482.772,261.342L418.882,299.705C417.876,300.278 416.874,300.708 415.654,300.708C414.649,300.708 413.431,300.494 412.426,299.92C410.419,298.701 409.198,296.693 409.198,294.328L409.198,268.799L238.037,268.799C256.179,297.195 267.078,345.453 287.945,345.453L307.091,345.453L307.091,326.237C307.091,322.652 309.887,319.854 313.472,319.854L377.365,319.854C380.95,319.854 383.747,322.652 383.747,326.237L383.747,390.126C383.747,393.712 380.95,396.509 377.365,396.509L313.472,396.509C309.887,396.509 307.091,393.712 307.091,390.126L307.091,370.981L287.945,370.981C233.879,370.981 229.791,268.798 198.527,268.798L126.605,268.798C120.795,290.74 100.863,307.16 77.128,307.16C48.947,307.089 26,284.144 26,255.963C26,227.783 48.947,204.837 77.128,204.837C100.862,204.837 120.868,221.185 126.605,243.2C154.642,243.2 158.084,250.011 180.098,199.887C208.853,135.997 221.759,141.017 258.186,141.017C263.563,126.031 277.547,115.49 294.328,115.49C315.479,115.49 332.691,132.628 332.691,153.853C332.691,175.078 315.552,192.216 294.328,192.216C277.548,192.216 263.563,181.603 258.186,166.688L236.818,166.688C215.952,166.688 205.052,215.018 186.911,243.342L409.272,243.342L409.272,217.815C409.272,215.449 410.49,213.441 412.499,212.222C414.507,211.003 417.09,211.218 418.883,212.437L482.773,250.8C484.779,251.59 485.999,253.742 485.999,255.964Z" style="fill-rule:nonzero;"/>
                </g>
            </g>
        </g>
    </g>
</svg>
