<svg xmlns="http://www.w3.org/2000/svg" width="64" height="64" fill-rule="evenodd" clip-rule="evenodd" image-rendering="optimizeQuality" shape-rendering="geometricPrecision" text-rendering="geometricPrecision" viewBox="0 0 800 800">
<path fill="#313131" d="M400 99.99c-133.53,0 -242.23,104.71 -249.3,236.4 -85.67,15.43 -150.7,90.2 -150.7,180.27 0,101.23 82.1,183.33 183.33,183.33l433.34 0.02c101.23,0 183.33,-82.1 183.33,-183.33 0,-90.07 -65.03,-164.84 -150.7,-180.27 -7.07,-131.7 -115.76,-236.4 -249.3,-236.4l0 -0.02zm0 66.67c115.1,0 196.37,93.23 185.56,226 58.16,-1.54 147.76,25.03 147.76,124.01 0,64.32 -52.33,116.66 -116.66,116.66l-433.34 0c-64.33,0 -116.66,-52.34 -116.66,-116.66 0,-93.23 82.63,-127.76 147.76,-124.01 -5.57,-140.6 73.6,-226 185.56,-226z"></path>
</svg>