<?xml version="1.0" encoding="UTF-8"?>
<!DOCTYPE svg PUBLIC "-//W3C//DTD SVG 1.1//EN" "http://www.w3.org/Graphics/SVG/1.1/DTD/svg11.dtd">
<!-- Creator: CorelDRAW 2017 -->
<svg xmlns="http://www.w3.org/2000/svg" xml:space="preserve" width="7.0377mm" height="5.4209mm" version="1.1" style="shape-rendering:geometricPrecision; text-rendering:geometricPrecision; image-rendering:optimizeQuality; fill-rule:evenodd; clip-rule:evenodd"
viewBox="0 0 49.84 38.39"
 xmlns:xlink="http://www.w3.org/1999/xlink">
 <defs>
  <style type="text/css">
   <![CDATA[
    .fil0 {fill:black}
   ]]>
  </style>
 </defs>
 <g id="Layer_x0020_1">
  <metadata id="CorelCorpID_0Corel-Layer"/>
  <polygon id="device.svg" class="fil0" points="44.22,6.08 40.47,6.08 40.47,3.75 8.62,3.75 8.62,25.27 30.64,25.27 30.64,29.02 4.87,29.02 4.87,0 44.22,0 "/>
  <polygon id="device.svg_0" class="fil0" points="30.64,38.39 -0,38.39 4.87,31.69 30.64,31.69 30.64,38.39 "/>
  <path id="device.svg_1" class="fil0" d="M49.84 10.66c0,-0.6 -0.24,-1.17 -0.66,-1.59 -0.42,-0.42 -0.99,-0.66 -1.59,-0.66l-12.37 0c-0.6,0 -1.17,0.24 -1.59,0.66 -0.42,0.42 -0.66,0.99 -0.66,1.59l0 25.48c0,0.6 0.24,1.17 0.66,1.59 0.42,0.42 0.99,0.66 1.59,0.66l12.37 0c0.6,0 1.17,-0.24 1.59,-0.66 0.42,-0.42 0.66,-0.99 0.66,-1.59l0 -25.48zm-1.87 25.58l0 -22.25 -13.12 0 0 22.25 13.12 0zm-4.68 -24.08c0.52,0 0.94,-0.42 0.94,-0.94 0,-0.52 -0.42,-0.94 -0.94,-0.94l-3.75 0c-0.52,0 -0.94,0.42 -0.94,0.94 0,0.52 0.42,0.94 0.94,0.94l3.75 -0z"/>
 </g>
</svg>
