<svg xmlns="http://www.w3.org/2000/svg" width="64" height="64" fill-rule="evenodd" clip-rule="evenodd" image-rendering="optimizeQuality" shape-rendering="geometricPrecision" text-rendering="geometricPrecision" viewBox="0 0 307.69 307.69"><path fill="#fa6831" d="M153.84 225.99c-7.95,0 -14.42,-6.46 -14.42,-14.42 0,-7.96 6.46,-14.42 14.42,-14.42 7.95,0 14.42,6.46 14.42,14.42 0,7.95 -6.46,14.42 -14.42,14.42zm-17.3 -141.35l34.6 0 -11.54 92.28 -11.53 0 -11.54 -92.28z"></path><path fill="#313131" d="M211.2 15.38l-114.7 0 -81.11 81.11 0 114.7 81.11 81.11 114.7 0 81.11 -81.11 0 -114.7 -81.11 -81.11 0 0zm-9.56 23.07l67.61 67.6 0 95.59 -67.61 67.61 -95.64 0 -67.61 -67.61 0 -95.59 67.61 -67.6 95.64 0z"></path></svg>