<svg xmlns="http://www.w3.org/2000/svg" width="64" height="64" fill-rule="evenodd" clip-rule="evenodd" image-rendering="optimizeQuality" shape-rendering="geometricPrecision" text-rendering="geometricPrecision" viewBox="0 0 235.29 235.29"><path fill="#313131" d="M162.92 137.08l-18.1 0 0 36.04 18.1 0 0 -36.04zm-144.78 0l-0.05 0 -18.03 0 -0.05 0 0 36.04 0.05 0 18.03 0 0.05 0 0 -36.04zm162.87 -36.35l18.1 0 0 72.39 -18.1 0 0 -72.39zm-54.29 0l-18.1 0 0 72.39 18.1 0 0 -72.39zm-72.38 0l-18.1 0 0 72.39 18.1 0 0 -72.39z"></path><path fill="#fa6831" d="M217.19 62.17l18.1 0 0 110.94 -18.1 0 0 -110.94zm-126.66 0l-18.1 0 0 110.94 18.1 0 0 -110.94z"></path></svg>