<svg xmlns="http://www.w3.org/2000/svg" width="64" height="64" fill-rule="evenodd" clip-rule="evenodd" image-rendering="optimizeQuality" shape-rendering="geometricPrecision" text-rendering="geometricPrecision" viewBox="0 0 4000 4000"><path fill="#fa6831" d="M2000 1647.5c195.02,0 352.5,157.42 352.5,352.5 0,195.02 -157.42,352.5 -352.5,352.5 -195.02,0 -352.5,-157.42 -352.5,-352.5 0,-195.02 157.42,-352.5 352.5,-352.5z"></path><path fill="#313131" d="M2011.78 1276.22c397.12,0 721.4,324.28 721.4,721.4 0,197.4 -79.9,378.3 -211.48,509.9l256.1 256.12c197.4,-197.4 317.22,-467.62 317.22,-766.02 0,-596.9 -484.1,-1080.92 -1080.92,-1080.92 -596.88,0 -1080.92,484.1 -1080.92,1080.92 0,298.4 119.82,568.68 317.22,766.02l256.1 -256.12c-131.58,-131.6 -211.48,-310.2 -211.48,-509.9 0,-397.12 324.28,-721.4 721.4,-721.4l-4.7 0 0.06 0zm0 -721.4c794.22,0 1440.5,646.2 1440.5,1440.48 0,397.1 -162.12,756.62 -423,1019.8l256.12 256.12c324.28,-324.3 528.7,-775.42 528.7,-1273.6 0,-994 -806,-1800 -1800,-1800 -994,0 -1800,806 -1800,1800 0,498.18 202.1,947 528.7,1273.6l256.12 -256.12c-260.82,-260.8 -423,-622.7 -423,-1019.8 0,-794.22 646.2,-1440.48 1440.5,-1440.48l-4.64 0z"></path></svg>