<svg xmlns="http://www.w3.org/2000/svg" xml:space="preserve" width="20" height="20" viewBox="0 0 377.16 275.4" xmlns:xlink="http://www.w3.org/1999/xlink"><defs><style type="text/css"></style></defs><g id="Layer_x0020_1"><metadata id="CorelCorpID_0Corel-Layer"></metadata><path id="micro-sd-card" class="fil0" d="M351.76 244.77l0 12.28 -73.68 0 0 -12.28 73.68 0zm-267.37 -31.98l93.4 0 0 -28.75 -59.96 0 0 -99.61 -33.44 0 0 128.36zm267.37 3.91l0 13.14 -73.68 0 0 -13.14 73.68 0zm7.89 -28.08l0 13.14 -81.58 0 0 -13.14 81.58 0zm-7.89 -28.08l0 13.14 -73.68 0 0 -13.14 73.68 0zm7.89 -27.2l0 12.28 -81.58 0 0 -12.28 81.58 0zm-7.89 -28.08l0 13.14 -73.68 0 0 -13.13 73.68 0 0 -0.02zm0 -28.08l0 13.14 -73.68 0 0 -13.13 73.68 -0.02zm0 -28.08l0 13.14 -73.68 0 0 -13.13 73.68 -0.02zm-133.35 -49.1l-32.46 0c-11.76,0 -0.11,19.36 -18.4,19.36 -21.08,0 -15.87,1.04 -26.12,-8.94 -4.63,-4.47 -6.75,-10.32 -12.5,-10.32l-114.04 0.01c-7.5,0.15 -13.8,5.72 -14.88,13.14l-0.01 247.26c0.18,8.14 6.75,14.71 14.9,14.88l349.11 0.01c6.91,-0.78 12.37,-6.24 13.14,-13.16l0 -217.5c0,-6.18 -7,-11.63 -12.61,-12.82 -4.24,-0.89 -87.93,-0.4 -101.43,-0.33 -13.5,0.07 -15.05,-4.2 -24.34,-13.4l-12.28 -13.17c-2.26,-2.31 -3.97,-5.03 -8.11,-5.03l0.03 0z"></path></g></svg>