<?xml version="1.0" encoding="UTF-8"?>
<!DOCTYPE svg PUBLIC "-//W3C//DTD SVG 1.1//EN" "http://www.w3.org/Graphics/SVG/1.1/DTD/svg11.dtd">
<svg xmlns="http://www.w3.org/2000/svg" xml:space="preserve" width="74px" height="72px" version="1.1" style="shape-rendering:geometricPrecision; text-rendering:geometricPrecision; image-rendering:optimizeQuality; fill-rule:evenodd; clip-rule:evenodd" viewBox="0 0 74 72.03" xmlns:xlink="http://www.w3.org/1999/xlink">
  <path id="restart-icon.svg" fill="#808080" d="M59.65 16.69c-12.03,-13.46 -28.93,-11.79 -39.9,-2.89l40.6 40.61c8.34,-10.19 10.02,-25.73 -0.7,-37.72l0 0zm-44.83 2.11c-6.59,8.39 -8.75,20.19 -1.77,31.97l7.22 -4.97 -1.16 21.25 -19.11 -7.31 7.26 -5.02c-8.4,-13.79 -6.22,-29.84 2.5,-40.98l-6.35 -6.36 4.96 -4.96 6.23 6.23c6.58,-5.69 15.36,-9.11 25.4,-8.6 30.02,1.53 44.47,37.37 25.37,59.38l5.22 5.22 -4.96 4.96 -5.32 -5.33c-9.45,7.47 -22.09,9.72 -33.58,5.96 0.13,-2.42 0.27,-4.85 0.4,-7.27 10.83,4.12 20.87,1.89 28.18,-3.69l-40.49 -40.48z" />
</svg>
