<svg xmlns="http://www.w3.org/2000/svg" xml:space="preserve" width="60" height="60" style="shape-rendering:geometricPrecision;text-rendering:geometricPrecision;image-rendering:optimizeQuality;fill-rule:evenodd;clip-rule:evenodd" viewBox="0 0 2.53 2.53"><defs><style>.fil0{fill:none}</style></defs><g id="Layer_x0020_1"><g id="_2090017660624"><path id="printer-header-prepared" d="M0 0h2.53v2.53H0z" class="fil0"/><path d="M1.27.5c.17.16.25.32.24.54 0 .2-.07.47-.15.77l-.01.02h-.17c-.08-.31-.15-.57-.15-.79 0-.22.07-.38.24-.54zm0-.21C.98.5.86.74.86 1.04c0 .27.09.58.19.96h.43c.1-.38.19-.7.19-.96.01-.3-.12-.54-.4-.75zm.7 1.69-.22-.39c-.02.05-.03.12-.04.17l.14.26-.18-.12-.03.13.33.21c.01-.05.03-.1.03-.15 0-.04-.01-.08-.03-.11zm-1.43.11c0 .05.02.1.03.15l.33-.21-.04-.13-.18.12.15-.26C.81 1.71.8 1.64.78 1.59l-.21.39c-.01.03-.03.07-.03.11zm.84.15h-.23l-.04-.16h.31l-.04.16zM1.42.95c-.09.01-.2.01-.31 0-.01.05-.01.1 0 .15.04.01.1.01.16.01s.11 0 .15-.01c.01-.04.02-.11 0-.15z" style="fill:#585858"/></g><path d="M.23 2 2.3.53" class="fil0" style="stroke:#ef7f1a;stroke-width:.17;stroke-linecap:round;stroke-linejoin:round;stroke-miterlimit:22.9256"/></g></svg>