<svg xmlns="http://www.w3.org/2000/svg" width="22.945" height="24" viewBox="0 0 22.945 24">
  <path id="bell.svg" d="M14.919,20.565a3.517,3.517,0,0,1-3.41,3.441,3.572,3.572,0,0,1-3.472-3.441ZM7.872,1C2.411,3.925,5.595,14.445,0,16.269v2.009H22.945V16.269C17.351,14.445,20.514,3.956,15.074,1a7.026,7.026,0,0,0-7.2,0ZM4.07,15.98C5.43,14.064,5.914,11.519,6.326,9.3c.515-2.741,1-5.337,2.7-6.326a4.789,4.789,0,0,1,4.894,0c1.7.989,2.184,3.575,2.7,6.326.412,2.2.886,4.76,2.256,6.676H4.07Z" transform="translate(0 -0.006)" fill="gray" fill-rule="evenodd"/>
</svg>
