<svg xmlns="http://www.w3.org/2000/svg" width="64" height="64" fill-rule="evenodd" clip-rule="evenodd" image-rendering="optimizeQuality" shape-rendering="geometricPrecision" text-rendering="geometricPrecision" viewBox="0 0 800.05 800.05"><path fill="#fa6831" d="M302.7 611.01c-40.05,-39.54 -45.12,-62.86 -10.14,-107.97 12.17,-15.71 17.75,-31.43 17.75,-46.63 0,-31.94 -23.32,-63.37 -53.74,-99.87l-48.15 45.62c45.62,53.23 41.57,58.8 8.62,105.44 -10.64,15.21 -14.7,29.91 -14.7,45.12 0,38.53 28.89,75.02 55.26,102.4l45.62 -44.1 -0.5 0zm288.43 0c-40.05,-39.54 -45.12,-62.86 -10.14,-107.97 12.16,-15.71 17.74,-31.43 17.74,-46.63 0,-31.94 -23.32,-63.37 -53.73,-99.87l-48.15 45.62c45.62,53.23 41.57,58.8 8.62,105.44 -10.64,15.21 -14.7,29.91 -14.7,45.12 0,38.53 28.89,75.02 55.25,102.4l45.63 -44.1 -0.51 0zm-145.99 0c-40.05,-39.54 -45.12,-62.86 -10.14,-107.97 12.16,-15.71 17.74,-31.43 17.74,-46.63 0,-31.94 -23.32,-63.37 -53.74,-99.87l-48.15 45.62c45.62,53.23 41.57,58.8 8.62,105.44 -10.64,15.21 -14.7,29.91 -14.7,45.12 0,38.53 28.89,75.02 55.25,102.4l45.63 -44.1 -0.51 0z"></path><path fill="#313131" d="M566.18 32l0 124.4 -108.1 140.72 -89.37 0 -108.08 -140.72 0 -124.4 67.62 0 0 101.45 73.08 96.03 23.55 0 73.67 -96.03 0 -101.45 67.64 0zm-421.64 665.59l510.97 0 0 70.46 -510.97 0 0 -70.46z"></path></svg>