<svg xmlns="http://www.w3.org/2000/svg" width="64" height="64" fill-rule="evenodd" clip-rule="evenodd" image-rendering="optimizeQuality" shape-rendering="geometricPrecision" text-rendering="geometricPrecision" viewBox="0 0 307.69 307.69"><path fill="#fa6831" d="M192.31 141.02l-153.85 0c-7.08,0 -12.82,5.74 -12.82,12.82 0,7.08 5.74,12.82 12.82,12.82l153.85 0c7.08,0 12.82,-5.74 12.82,-12.82 0,-7.08 -5.74,-12.82 -12.82,-12.82z"></path><path fill="#313131" d="M307.69 153.85c0,-21.24 -17.22,-38.46 -38.46,-38.46l-230.76 0c-21.24,0 -38.46,17.22 -38.46,38.46 0,21.25 17.22,38.46 38.46,38.46l230.77 0c21.24,0 38.46,-17.22 38.46,-38.46l-0 0zm-38.46 -25.64c14.14,0 25.64,11.5 25.64,25.64 0,14.14 -11.5,25.64 -25.64,25.64l-230.77 0c-14.14,0 -25.64,-11.5 -25.64,-25.64 0,-14.14 11.5,-25.64 25.64,-25.64l230.77 0z"></path></svg>