<svg width="24" height="24" viewBox="0 0 24 24" xmlns="http://www.w3.org/2000/svg" xmlns:xlink="http://www.w3.org/1999/xlink" xml:space="preserve" xmlns:serif="http://www.serif.com/"><g><rect x="0" y="0" width="24" height="24" style="fill: none; fill-rule: nonzero;"></rect><path d="M16,17L16,16L13,16L13,13L16,13L16,15L18,15L18,17L17,17L17,19L15,19L15,21L13,21L13,18L15,18L15,17L16,17ZM21,21L17,21L17,19L19,19L19,17L21,17L21,21ZM3,3L11,3L11,11L3,11L3,3ZM5,5L5,9L9,9L9,5L5,5ZM13,3L21,3L21,11L13,11L13,3ZM15,5L15,9L19,9L19,5L15,5ZM3,13L11,13L11,21L3,21L3,13ZM5,15L5,19L9,19L9,15L5,15ZM18,13L21,13L21,15L18,15L18,13ZM6,6L8,6L8,8L6,8L6,6Z" style="fill-rule: nonzero;"></path><rect x="16" y="6" width="2" height="2" style="fill: rgb(250, 104, 49); fill-rule: nonzero;"></rect><g transform="matrix(1,0,0,1,-10,10)"><rect x="16" y="6" width="2" height="2" style="fill: rgb(250, 104, 49); fill-rule: nonzero;"></rect></g></g></svg>