<svg width="20" height="20" viewBox="0 0 23 22" xmlns="http://www.w3.org/2000/svg" xmlns:xlink="http://www.w3.org/1999/xlink" xml:space="preserve" style="display: block;"><rect id="printer-header-prepared" x="0.803" y="-0.002" width="22" height="22" style="fill: none;"></rect><path d="M11.843,4.356C13.336,5.692 13.966,7.108 13.887,8.994C13.887,10.803 13.337,13.082 12.63,15.676L12.551,15.912L11.058,15.912C10.35,13.239 9.722,10.96 9.722,8.994C9.722,7.107 10.351,5.692 11.845,4.356L11.843,4.356ZM11.843,2.548C9.327,4.356 8.305,6.4 8.305,8.994C8.305,11.353 9.091,14.104 9.956,17.327L13.651,17.327C14.515,14.025 15.301,11.273 15.301,8.994C15.38,6.4 14.279,4.356 11.842,2.548L11.843,2.548ZM17.896,17.168L16.009,13.787C15.852,14.259 15.773,14.809 15.616,15.281L16.874,17.561L15.302,16.539L15.066,17.639L17.896,19.448C17.975,19.055 18.132,18.583 18.132,18.19C18.132,17.797 18.053,17.483 17.896,17.169L17.896,17.168ZM5.473,18.19C5.473,18.583 5.631,19.054 5.788,19.447L8.618,17.639L8.304,16.538L6.732,17.56L7.989,15.28C7.832,14.808 7.753,14.258 7.596,13.787L5.788,17.167C5.63,17.481 5.473,17.796 5.473,18.189L5.473,18.19ZM12.784,19.447L10.819,19.447L10.426,18.032L13.177,18.032L12.784,19.447ZM13.177,8.283C12.313,8.362 11.369,8.362 10.426,8.283C10.347,8.699 10.347,9.125 10.426,9.541C10.819,9.619 11.29,9.619 11.84,9.619C12.312,9.619 12.784,9.619 13.177,9.541C13.255,9.226 13.334,8.598 13.177,8.283L13.177,8.283Z" style="fill: rgb(88, 88, 88);"></path></svg>