<svg xmlns="http://www.w3.org/2000/svg" xml:space="preserve" width="37.865" height="31.562" style="shape-rendering:geometricPrecision;text-rendering:geometricPrecision;image-rendering:optimizeQuality;fill-rule:evenodd;clip-rule:evenodd" viewBox="0 0 491.71 409.87"><path d="M225.37 61.46c-33.38 0-47.23-21.66-81.94-61.46H0v409.85h491.71V61.48l-266.34-.01z" style="fill:#585858"/><path d="M374.99 409.86h-12.96c0-20.15.78-23.05-11.43-25.88-18.68-4.31-36.32-8.38-42.76-22.45-2.34-5.14-3.91-13.61 2.01-24.77 13.26-25.05 16.58-46.52 9.11-58.93-8.73-14.48-35.15-14.54-43.96.22-7.48 12.57-4.1 33.93 9.26 58.59 6.04 11.12 4.52 19.61 2.18 24.78-6.36 14.14-23.84 18.18-42.36 22.44-12.75 2.95-11.95 5.65-11.95 26h-12.92l-.02-8.09c0-16.35 1.3-25.78 20.62-30.24 21.84-5.05 43.43-9.56 33.05-28.69-30.72-56.68-8.78-88.81 24.22-88.81 32.36 0 54.89 30.95 24.25 88.81-10.07 19.01 10.7 23.53 33.05 28.69 19.35 4.47 20.63 13.92 20.63 30.3l-.02 8.04zm62.46-28.75c-16.74-3.87-32.32-7.26-24.78-21.52 22.98-43.39 6.11-66.6-18.18-66.6-16.43 0-29.19 10.61-29.19 30.19 0 16.48 7.46 28.24 11.74 37.98h13.61c-2.21-9.74-19.03-33.27-9.95-48.51 5.35-8.99 22.13-9 27.45-.16 4.93 8.2 2.35 23.52-6.94 41.04-5.04 9.52-3.64 16.89-1.57 21.4 3.96 8.65 12.69 12.82 22.56 15.69 19.57 5.73 17.77.54 17.77 19.22h12.95l.02-6.01c0-12.27-.96-19.38-15.49-22.72zm-296.14 28.75h12.95c0-18.68-1.81-13.49 17.77-19.22 9.88-2.87 18.61-7.04 22.56-15.69 2.07-4.52 3.47-11.88-1.57-21.4-9.29-17.52-11.87-32.85-6.94-41.04 5.33-8.85 22.1-8.84 27.45.16 9.08 15.26-7.74 38.77-9.95 48.51h13.61c4.28-9.74 11.74-21.51 11.74-37.98.01-19.6-12.75-30.2-29.17-30.2-24.29 0-41.16 23.21-18.18 66.6 7.54 14.27-8.04 17.65-24.78 21.52-14.54 3.35-15.5 10.45-15.5 22.74l.02 6.01z" style="fill:#fefefe"/></svg>